G04 #@! TF.GenerationSoftware,KiCad,Pcbnew,(5.0.2)-1*
G04 #@! TF.CreationDate,2019-09-14T00:07:01-04:00*
G04 #@! TF.ProjectId,TARC Altimeter,54415243-2041-46c7-9469-6d657465722e,0.1*
G04 #@! TF.SameCoordinates,Original*
G04 #@! TF.FileFunction,Soldermask,Bot*
G04 #@! TF.FilePolarity,Negative*
%FSLAX46Y46*%
G04 Gerber Fmt 4.6, Leading zero omitted, Abs format (unit mm)*
G04 Created by KiCad (PCBNEW (5.0.2)-1) date 9/14/2019 12:07:01 AM*
%MOMM*%
%LPD*%
G01*
G04 APERTURE LIST*
%ADD10C,0.100000*%
G04 APERTURE END LIST*
D10*
G36*
X120947000Y-102913000D02*
X120718738Y-102913000D01*
X120694352Y-102915402D01*
X120670903Y-102922515D01*
X120649292Y-102934066D01*
X120630350Y-102949612D01*
X120614804Y-102968554D01*
X120603253Y-102990165D01*
X120596140Y-103013614D01*
X120593738Y-103038000D01*
X120596140Y-103062386D01*
X120603253Y-103085835D01*
X120614804Y-103107446D01*
X120630350Y-103126388D01*
X120659808Y-103148236D01*
X120703600Y-103171644D01*
X120787501Y-103240499D01*
X120856356Y-103324400D01*
X120907521Y-103420121D01*
X120939027Y-103523985D01*
X120949666Y-103632000D01*
X120939027Y-103740015D01*
X120907521Y-103843879D01*
X120856356Y-103939600D01*
X120787501Y-104023501D01*
X120703600Y-104092356D01*
X120607879Y-104143521D01*
X120504015Y-104175027D01*
X120423067Y-104183000D01*
X120368933Y-104183000D01*
X120287985Y-104175027D01*
X120184121Y-104143521D01*
X120088400Y-104092356D01*
X120004499Y-104023501D01*
X119935644Y-103939600D01*
X119884479Y-103843879D01*
X119852973Y-103740015D01*
X119842334Y-103632000D01*
X119852973Y-103523985D01*
X119884479Y-103420121D01*
X119935644Y-103324400D01*
X120004499Y-103240499D01*
X120088400Y-103171644D01*
X120132195Y-103148234D01*
X120152561Y-103134626D01*
X120169889Y-103117299D01*
X120183502Y-103096924D01*
X120192880Y-103074285D01*
X120197660Y-103050252D01*
X120197660Y-103025748D01*
X120192879Y-103001714D01*
X120183502Y-102979075D01*
X120169888Y-102958701D01*
X120152561Y-102941373D01*
X120132186Y-102927760D01*
X120109547Y-102918382D01*
X120073262Y-102913000D01*
X119845000Y-102913000D01*
X119845000Y-101811000D01*
X120947000Y-101811000D01*
X120947000Y-102913000D01*
X120947000Y-102913000D01*
G37*
G36*
X154171000Y-103321000D02*
X153169000Y-103321000D01*
X153169000Y-102419000D01*
X154171000Y-102419000D01*
X154171000Y-103321000D01*
X154171000Y-103321000D01*
G37*
G36*
X156171000Y-102371000D02*
X155169000Y-102371000D01*
X155169000Y-101469000D01*
X156171000Y-101469000D01*
X156171000Y-102371000D01*
X156171000Y-102371000D01*
G37*
G36*
X137623677Y-100853465D02*
X137661364Y-100864898D01*
X137696103Y-100883466D01*
X137726548Y-100908452D01*
X137751534Y-100938897D01*
X137770102Y-100973636D01*
X137781535Y-101011323D01*
X137786000Y-101056661D01*
X137786000Y-102143339D01*
X137781535Y-102188677D01*
X137770102Y-102226364D01*
X137751534Y-102261103D01*
X137726548Y-102291548D01*
X137696103Y-102316534D01*
X137661364Y-102335102D01*
X137623677Y-102346535D01*
X137578339Y-102351000D01*
X136741661Y-102351000D01*
X136696323Y-102346535D01*
X136658636Y-102335102D01*
X136623897Y-102316534D01*
X136593452Y-102291548D01*
X136568466Y-102261103D01*
X136549898Y-102226364D01*
X136538465Y-102188677D01*
X136534000Y-102143339D01*
X136534000Y-101056661D01*
X136538465Y-101011323D01*
X136549898Y-100973636D01*
X136568466Y-100938897D01*
X136593452Y-100908452D01*
X136623897Y-100883466D01*
X136658636Y-100864898D01*
X136696323Y-100853465D01*
X136741661Y-100849000D01*
X137578339Y-100849000D01*
X137623677Y-100853465D01*
X137623677Y-100853465D01*
G37*
G36*
X139673677Y-100853465D02*
X139711364Y-100864898D01*
X139746103Y-100883466D01*
X139776548Y-100908452D01*
X139801534Y-100938897D01*
X139820102Y-100973636D01*
X139831535Y-101011323D01*
X139836000Y-101056661D01*
X139836000Y-102143339D01*
X139831535Y-102188677D01*
X139820102Y-102226364D01*
X139801534Y-102261103D01*
X139776548Y-102291548D01*
X139746103Y-102316534D01*
X139711364Y-102335102D01*
X139673677Y-102346535D01*
X139628339Y-102351000D01*
X138791661Y-102351000D01*
X138746323Y-102346535D01*
X138708636Y-102335102D01*
X138673897Y-102316534D01*
X138643452Y-102291548D01*
X138618466Y-102261103D01*
X138599898Y-102226364D01*
X138588465Y-102188677D01*
X138584000Y-102143339D01*
X138584000Y-101056661D01*
X138588465Y-101011323D01*
X138599898Y-100973636D01*
X138618466Y-100938897D01*
X138643452Y-100908452D01*
X138673897Y-100883466D01*
X138708636Y-100864898D01*
X138746323Y-100853465D01*
X138791661Y-100849000D01*
X139628339Y-100849000D01*
X139673677Y-100853465D01*
X139673677Y-100853465D01*
G37*
G36*
X128221000Y-101976000D02*
X126419000Y-101976000D01*
X126419000Y-101224000D01*
X128221000Y-101224000D01*
X128221000Y-101976000D01*
X128221000Y-101976000D01*
G37*
G36*
X135521000Y-101976000D02*
X133719000Y-101976000D01*
X133719000Y-101224000D01*
X135521000Y-101224000D01*
X135521000Y-101976000D01*
X135521000Y-101976000D01*
G37*
G36*
X154171000Y-101421000D02*
X153169000Y-101421000D01*
X153169000Y-100519000D01*
X154171000Y-100519000D01*
X154171000Y-101421000D01*
X154171000Y-101421000D01*
G37*
G36*
X147430443Y-99435519D02*
X147496627Y-99442037D01*
X147609853Y-99476384D01*
X147666467Y-99493557D01*
X147805087Y-99567652D01*
X147822991Y-99577222D01*
X147858729Y-99606552D01*
X147960186Y-99689814D01*
X148043448Y-99791271D01*
X148072778Y-99827009D01*
X148072779Y-99827011D01*
X148156443Y-99983533D01*
X148162612Y-100003869D01*
X148207963Y-100153373D01*
X148225359Y-100330000D01*
X148207963Y-100506627D01*
X148188580Y-100570524D01*
X148156443Y-100676467D01*
X148098196Y-100785438D01*
X148072778Y-100832991D01*
X148057998Y-100851000D01*
X147960186Y-100970186D01*
X147858729Y-101053448D01*
X147822991Y-101082778D01*
X147822989Y-101082779D01*
X147666467Y-101166443D01*
X147636497Y-101175534D01*
X147496627Y-101217963D01*
X147435331Y-101224000D01*
X147364260Y-101231000D01*
X147275740Y-101231000D01*
X147204669Y-101224000D01*
X147143373Y-101217963D01*
X147003503Y-101175534D01*
X146973533Y-101166443D01*
X146817011Y-101082779D01*
X146817009Y-101082778D01*
X146781271Y-101053448D01*
X146679814Y-100970186D01*
X146582002Y-100851000D01*
X146567222Y-100832991D01*
X146541804Y-100785438D01*
X146483557Y-100676467D01*
X146451420Y-100570524D01*
X146432037Y-100506627D01*
X146414641Y-100330000D01*
X146432037Y-100153373D01*
X146477388Y-100003869D01*
X146483557Y-99983533D01*
X146567221Y-99827011D01*
X146567222Y-99827009D01*
X146596552Y-99791271D01*
X146679814Y-99689814D01*
X146781271Y-99606552D01*
X146817009Y-99577222D01*
X146834913Y-99567652D01*
X146973533Y-99493557D01*
X147030147Y-99476384D01*
X147143373Y-99442037D01*
X147209558Y-99435518D01*
X147275740Y-99429000D01*
X147364260Y-99429000D01*
X147430443Y-99435519D01*
X147430443Y-99435519D01*
G37*
G36*
X149970443Y-99435519D02*
X150036627Y-99442037D01*
X150149853Y-99476384D01*
X150206467Y-99493557D01*
X150345087Y-99567652D01*
X150362991Y-99577222D01*
X150398729Y-99606552D01*
X150500186Y-99689814D01*
X150583448Y-99791271D01*
X150612778Y-99827009D01*
X150612779Y-99827011D01*
X150696443Y-99983533D01*
X150702612Y-100003869D01*
X150747963Y-100153373D01*
X150765359Y-100330000D01*
X150747963Y-100506627D01*
X150728580Y-100570524D01*
X150696443Y-100676467D01*
X150638196Y-100785438D01*
X150612778Y-100832991D01*
X150597998Y-100851000D01*
X150500186Y-100970186D01*
X150398729Y-101053448D01*
X150362991Y-101082778D01*
X150362989Y-101082779D01*
X150206467Y-101166443D01*
X150176497Y-101175534D01*
X150036627Y-101217963D01*
X149975331Y-101224000D01*
X149904260Y-101231000D01*
X149815740Y-101231000D01*
X149744669Y-101224000D01*
X149683373Y-101217963D01*
X149543503Y-101175534D01*
X149513533Y-101166443D01*
X149357011Y-101082779D01*
X149357009Y-101082778D01*
X149321271Y-101053448D01*
X149219814Y-100970186D01*
X149122002Y-100851000D01*
X149107222Y-100832991D01*
X149081804Y-100785438D01*
X149023557Y-100676467D01*
X148991420Y-100570524D01*
X148972037Y-100506627D01*
X148954641Y-100330000D01*
X148972037Y-100153373D01*
X149017388Y-100003869D01*
X149023557Y-99983533D01*
X149107221Y-99827011D01*
X149107222Y-99827009D01*
X149136552Y-99791271D01*
X149219814Y-99689814D01*
X149321271Y-99606552D01*
X149357009Y-99577222D01*
X149374913Y-99567652D01*
X149513533Y-99493557D01*
X149570147Y-99476384D01*
X149683373Y-99442037D01*
X149749558Y-99435518D01*
X149815740Y-99429000D01*
X149904260Y-99429000D01*
X149970443Y-99435519D01*
X149970443Y-99435519D01*
G37*
G36*
X159592677Y-99962465D02*
X159630364Y-99973898D01*
X159665103Y-99992466D01*
X159695548Y-100017452D01*
X159720534Y-100047897D01*
X159739102Y-100082636D01*
X159750535Y-100120323D01*
X159755000Y-100165661D01*
X159755000Y-101002339D01*
X159750535Y-101047677D01*
X159739102Y-101085364D01*
X159720534Y-101120103D01*
X159695548Y-101150548D01*
X159665103Y-101175534D01*
X159630364Y-101194102D01*
X159592677Y-101205535D01*
X159547339Y-101210000D01*
X158460661Y-101210000D01*
X158415323Y-101205535D01*
X158377636Y-101194102D01*
X158342897Y-101175534D01*
X158312452Y-101150548D01*
X158287466Y-101120103D01*
X158268898Y-101085364D01*
X158257465Y-101047677D01*
X158253000Y-101002339D01*
X158253000Y-100165661D01*
X158257465Y-100120323D01*
X158268898Y-100082636D01*
X158287466Y-100047897D01*
X158312452Y-100017452D01*
X158342897Y-99992466D01*
X158377636Y-99973898D01*
X158415323Y-99962465D01*
X158460661Y-99958000D01*
X159547339Y-99958000D01*
X159592677Y-99962465D01*
X159592677Y-99962465D01*
G37*
G36*
X108760202Y-95247781D02*
X109035606Y-95302562D01*
X109554455Y-95517476D01*
X109906924Y-95752989D01*
X110021410Y-95829486D01*
X110418514Y-96226590D01*
X110418516Y-96226593D01*
X110730524Y-96693545D01*
X110945438Y-97212394D01*
X110976490Y-97368502D01*
X111055000Y-97763200D01*
X111055000Y-98324800D01*
X111034037Y-98430186D01*
X110945438Y-98875606D01*
X110730524Y-99394455D01*
X110595254Y-99596900D01*
X110418514Y-99861410D01*
X110021410Y-100258514D01*
X110021407Y-100258516D01*
X109554455Y-100570524D01*
X109035606Y-100785438D01*
X108870417Y-100818296D01*
X108484800Y-100895000D01*
X107923200Y-100895000D01*
X107537583Y-100818296D01*
X107372394Y-100785438D01*
X106853545Y-100570524D01*
X106386593Y-100258516D01*
X106386590Y-100258514D01*
X105989486Y-99861410D01*
X105812746Y-99596900D01*
X105677476Y-99394455D01*
X105462562Y-98875606D01*
X105373963Y-98430186D01*
X105353000Y-98324800D01*
X105353000Y-97763200D01*
X105431510Y-97368502D01*
X105462562Y-97212394D01*
X105677476Y-96693545D01*
X105989484Y-96226593D01*
X105989486Y-96226590D01*
X106386590Y-95829486D01*
X106501076Y-95752989D01*
X106853545Y-95517476D01*
X107372394Y-95302562D01*
X107647798Y-95247781D01*
X107923200Y-95193000D01*
X108484800Y-95193000D01*
X108760202Y-95247781D01*
X108760202Y-95247781D01*
G37*
G36*
X117748228Y-99181703D02*
X117903100Y-99245853D01*
X118042481Y-99338985D01*
X118161015Y-99457519D01*
X118254147Y-99596900D01*
X118318297Y-99751772D01*
X118351000Y-99916184D01*
X118351000Y-100083816D01*
X118318297Y-100248228D01*
X118254147Y-100403100D01*
X118161015Y-100542481D01*
X118042481Y-100661015D01*
X117903100Y-100754147D01*
X117748228Y-100818297D01*
X117583816Y-100851000D01*
X117416184Y-100851000D01*
X117251772Y-100818297D01*
X117096900Y-100754147D01*
X116957519Y-100661015D01*
X116838985Y-100542481D01*
X116745853Y-100403100D01*
X116681703Y-100248228D01*
X116649000Y-100083816D01*
X116649000Y-99916184D01*
X116681703Y-99751772D01*
X116745853Y-99596900D01*
X116838985Y-99457519D01*
X116957519Y-99338985D01*
X117096900Y-99245853D01*
X117251772Y-99181703D01*
X117416184Y-99149000D01*
X117583816Y-99149000D01*
X117748228Y-99181703D01*
X117748228Y-99181703D01*
G37*
G36*
X114248228Y-99181703D02*
X114403100Y-99245853D01*
X114542481Y-99338985D01*
X114661015Y-99457519D01*
X114754147Y-99596900D01*
X114818297Y-99751772D01*
X114851000Y-99916184D01*
X114851000Y-100083816D01*
X114818297Y-100248228D01*
X114754147Y-100403100D01*
X114661015Y-100542481D01*
X114542481Y-100661015D01*
X114403100Y-100754147D01*
X114248228Y-100818297D01*
X114083816Y-100851000D01*
X113916184Y-100851000D01*
X113751772Y-100818297D01*
X113596900Y-100754147D01*
X113457519Y-100661015D01*
X113338985Y-100542481D01*
X113245853Y-100403100D01*
X113181703Y-100248228D01*
X113149000Y-100083816D01*
X113149000Y-99916184D01*
X113181703Y-99751772D01*
X113245853Y-99596900D01*
X113338985Y-99457519D01*
X113457519Y-99338985D01*
X113596900Y-99245853D01*
X113751772Y-99181703D01*
X113916184Y-99149000D01*
X114083816Y-99149000D01*
X114248228Y-99181703D01*
X114248228Y-99181703D01*
G37*
G36*
X128221000Y-100706000D02*
X126419000Y-100706000D01*
X126419000Y-99954000D01*
X128221000Y-99954000D01*
X128221000Y-100706000D01*
X128221000Y-100706000D01*
G37*
G36*
X135521000Y-100706000D02*
X133719000Y-100706000D01*
X133719000Y-99954000D01*
X135521000Y-99954000D01*
X135521000Y-100706000D01*
X135521000Y-100706000D01*
G37*
G36*
X128221000Y-99436000D02*
X126419000Y-99436000D01*
X126419000Y-98684000D01*
X128221000Y-98684000D01*
X128221000Y-99436000D01*
X128221000Y-99436000D01*
G37*
G36*
X135521000Y-99436000D02*
X133719000Y-99436000D01*
X133719000Y-98684000D01*
X135521000Y-98684000D01*
X135521000Y-99436000D01*
X135521000Y-99436000D01*
G37*
G36*
X159592677Y-97912465D02*
X159630364Y-97923898D01*
X159665103Y-97942466D01*
X159695548Y-97967452D01*
X159720534Y-97997897D01*
X159739102Y-98032636D01*
X159750535Y-98070323D01*
X159755000Y-98115661D01*
X159755000Y-98952339D01*
X159750535Y-98997677D01*
X159739102Y-99035364D01*
X159720534Y-99070103D01*
X159695548Y-99100548D01*
X159665103Y-99125534D01*
X159630364Y-99144102D01*
X159592677Y-99155535D01*
X159547339Y-99160000D01*
X158460661Y-99160000D01*
X158415323Y-99155535D01*
X158377636Y-99144102D01*
X158342897Y-99125534D01*
X158312452Y-99100548D01*
X158287466Y-99070103D01*
X158268898Y-99035364D01*
X158257465Y-98997677D01*
X158253000Y-98952339D01*
X158253000Y-98115661D01*
X158257465Y-98070323D01*
X158268898Y-98032636D01*
X158287466Y-97997897D01*
X158312452Y-97967452D01*
X158342897Y-97942466D01*
X158377636Y-97923898D01*
X158415323Y-97912465D01*
X158460661Y-97908000D01*
X159547339Y-97908000D01*
X159592677Y-97912465D01*
X159592677Y-97912465D01*
G37*
G36*
X139671000Y-98991000D02*
X139069000Y-98991000D01*
X139069000Y-96589000D01*
X139671000Y-96589000D01*
X139671000Y-98991000D01*
X139671000Y-98991000D01*
G37*
G36*
X141271000Y-98991000D02*
X140669000Y-98991000D01*
X140669000Y-96589000D01*
X141271000Y-96589000D01*
X141271000Y-98991000D01*
X141271000Y-98991000D01*
G37*
G36*
X121137643Y-97273781D02*
X121283415Y-97334162D01*
X121414611Y-97421824D01*
X121526176Y-97533389D01*
X121613838Y-97664585D01*
X121674219Y-97810357D01*
X121705000Y-97965107D01*
X121705000Y-98122893D01*
X121674219Y-98277643D01*
X121613838Y-98423415D01*
X121526176Y-98554611D01*
X121414611Y-98666176D01*
X121283415Y-98753838D01*
X121137643Y-98814219D01*
X120982893Y-98845000D01*
X120825107Y-98845000D01*
X120670357Y-98814219D01*
X120524585Y-98753838D01*
X120393389Y-98666176D01*
X120281824Y-98554611D01*
X120194162Y-98423415D01*
X120133781Y-98277643D01*
X120103000Y-98122893D01*
X120103000Y-97965107D01*
X120133781Y-97810357D01*
X120194162Y-97664585D01*
X120281824Y-97533389D01*
X120393389Y-97421824D01*
X120524585Y-97334162D01*
X120670357Y-97273781D01*
X120825107Y-97243000D01*
X120982893Y-97243000D01*
X121137643Y-97273781D01*
X121137643Y-97273781D01*
G37*
G36*
X124062142Y-97218242D02*
X124176583Y-97265646D01*
X124196226Y-97273782D01*
X124210102Y-97279530D01*
X124221295Y-97287009D01*
X124343257Y-97368501D01*
X124456499Y-97481743D01*
X124500683Y-97547870D01*
X124545470Y-97614898D01*
X124606758Y-97762858D01*
X124638000Y-97919925D01*
X124638000Y-98080075D01*
X124606758Y-98237142D01*
X124545470Y-98385102D01*
X124456498Y-98518258D01*
X124343258Y-98631498D01*
X124210102Y-98720470D01*
X124062142Y-98781758D01*
X123905075Y-98813000D01*
X123744925Y-98813000D01*
X123587858Y-98781758D01*
X123439898Y-98720470D01*
X123306742Y-98631498D01*
X123193502Y-98518258D01*
X123104530Y-98385102D01*
X123043242Y-98237142D01*
X123012000Y-98080075D01*
X123012000Y-97919925D01*
X123043242Y-97762858D01*
X123104530Y-97614898D01*
X123149317Y-97547870D01*
X123193501Y-97481743D01*
X123306743Y-97368501D01*
X123428705Y-97287009D01*
X123439898Y-97279530D01*
X123453775Y-97273782D01*
X123473417Y-97265646D01*
X123587858Y-97218242D01*
X123744925Y-97187000D01*
X123905075Y-97187000D01*
X124062142Y-97218242D01*
X124062142Y-97218242D01*
G37*
G36*
X168587142Y-97218242D02*
X168701583Y-97265646D01*
X168721226Y-97273782D01*
X168735102Y-97279530D01*
X168746295Y-97287009D01*
X168868257Y-97368501D01*
X168981499Y-97481743D01*
X169025683Y-97547870D01*
X169070470Y-97614898D01*
X169131758Y-97762858D01*
X169163000Y-97919925D01*
X169163000Y-98080075D01*
X169131758Y-98237142D01*
X169070470Y-98385102D01*
X168981498Y-98518258D01*
X168868258Y-98631498D01*
X168735102Y-98720470D01*
X168587142Y-98781758D01*
X168430075Y-98813000D01*
X168269925Y-98813000D01*
X168112858Y-98781758D01*
X167964898Y-98720470D01*
X167831742Y-98631498D01*
X167718502Y-98518258D01*
X167629530Y-98385102D01*
X167568242Y-98237142D01*
X167537000Y-98080075D01*
X167537000Y-97919925D01*
X167568242Y-97762858D01*
X167629530Y-97614898D01*
X167674317Y-97547870D01*
X167718501Y-97481743D01*
X167831743Y-97368501D01*
X167953705Y-97287009D01*
X167964898Y-97279530D01*
X167978775Y-97273782D01*
X167998417Y-97265646D01*
X168112858Y-97218242D01*
X168269925Y-97187000D01*
X168430075Y-97187000D01*
X168587142Y-97218242D01*
X168587142Y-97218242D01*
G37*
G36*
X162087142Y-97218242D02*
X162201583Y-97265646D01*
X162221226Y-97273782D01*
X162235102Y-97279530D01*
X162246295Y-97287009D01*
X162368257Y-97368501D01*
X162481499Y-97481743D01*
X162525683Y-97547870D01*
X162570470Y-97614898D01*
X162631758Y-97762858D01*
X162663000Y-97919925D01*
X162663000Y-98080075D01*
X162631758Y-98237142D01*
X162570470Y-98385102D01*
X162481498Y-98518258D01*
X162368258Y-98631498D01*
X162235102Y-98720470D01*
X162087142Y-98781758D01*
X161930075Y-98813000D01*
X161769925Y-98813000D01*
X161612858Y-98781758D01*
X161464898Y-98720470D01*
X161331742Y-98631498D01*
X161218502Y-98518258D01*
X161129530Y-98385102D01*
X161068242Y-98237142D01*
X161037000Y-98080075D01*
X161037000Y-97919925D01*
X161068242Y-97762858D01*
X161129530Y-97614898D01*
X161174317Y-97547870D01*
X161218501Y-97481743D01*
X161331743Y-97368501D01*
X161453705Y-97287009D01*
X161464898Y-97279530D01*
X161478775Y-97273782D01*
X161498417Y-97265646D01*
X161612858Y-97218242D01*
X161769925Y-97187000D01*
X161930075Y-97187000D01*
X162087142Y-97218242D01*
X162087142Y-97218242D01*
G37*
G36*
X155812142Y-97218242D02*
X155926583Y-97265646D01*
X155946226Y-97273782D01*
X155960102Y-97279530D01*
X155971295Y-97287009D01*
X156093257Y-97368501D01*
X156206499Y-97481743D01*
X156250683Y-97547870D01*
X156295470Y-97614898D01*
X156356758Y-97762858D01*
X156388000Y-97919925D01*
X156388000Y-98080075D01*
X156356758Y-98237142D01*
X156295470Y-98385102D01*
X156206498Y-98518258D01*
X156093258Y-98631498D01*
X155960102Y-98720470D01*
X155812142Y-98781758D01*
X155655075Y-98813000D01*
X155494925Y-98813000D01*
X155337858Y-98781758D01*
X155189898Y-98720470D01*
X155056742Y-98631498D01*
X154943502Y-98518258D01*
X154854530Y-98385102D01*
X154793242Y-98237142D01*
X154762000Y-98080075D01*
X154762000Y-97919925D01*
X154793242Y-97762858D01*
X154854530Y-97614898D01*
X154899317Y-97547870D01*
X154943501Y-97481743D01*
X155056743Y-97368501D01*
X155178705Y-97287009D01*
X155189898Y-97279530D01*
X155203775Y-97273782D01*
X155223417Y-97265646D01*
X155337858Y-97218242D01*
X155494925Y-97187000D01*
X155655075Y-97187000D01*
X155812142Y-97218242D01*
X155812142Y-97218242D01*
G37*
G36*
X149970442Y-96895518D02*
X150036627Y-96902037D01*
X150149853Y-96936384D01*
X150206467Y-96953557D01*
X150345087Y-97027652D01*
X150362991Y-97037222D01*
X150367594Y-97041000D01*
X150500186Y-97149814D01*
X150583448Y-97251271D01*
X150612778Y-97287009D01*
X150612779Y-97287011D01*
X150696443Y-97443533D01*
X150696443Y-97443534D01*
X150747963Y-97613373D01*
X150765359Y-97790000D01*
X150747963Y-97966627D01*
X150741565Y-97987718D01*
X150696443Y-98136467D01*
X150680657Y-98166000D01*
X150612778Y-98292991D01*
X150586674Y-98324799D01*
X150500186Y-98430186D01*
X150398729Y-98513448D01*
X150362991Y-98542778D01*
X150362989Y-98542779D01*
X150206467Y-98626443D01*
X150189799Y-98631499D01*
X150036627Y-98677963D01*
X149975331Y-98684000D01*
X149904260Y-98691000D01*
X149815740Y-98691000D01*
X149744669Y-98684000D01*
X149683373Y-98677963D01*
X149530201Y-98631499D01*
X149513533Y-98626443D01*
X149357011Y-98542779D01*
X149357009Y-98542778D01*
X149321271Y-98513448D01*
X149219814Y-98430186D01*
X149133326Y-98324799D01*
X149107222Y-98292991D01*
X149039343Y-98166000D01*
X149023557Y-98136467D01*
X148978435Y-97987718D01*
X148972037Y-97966627D01*
X148954641Y-97790000D01*
X148972037Y-97613373D01*
X149023557Y-97443534D01*
X149023557Y-97443533D01*
X149107221Y-97287011D01*
X149107222Y-97287009D01*
X149136552Y-97251271D01*
X149219814Y-97149814D01*
X149352406Y-97041000D01*
X149357009Y-97037222D01*
X149374913Y-97027652D01*
X149513533Y-96953557D01*
X149570147Y-96936384D01*
X149683373Y-96902037D01*
X149749558Y-96895518D01*
X149815740Y-96889000D01*
X149904260Y-96889000D01*
X149970442Y-96895518D01*
X149970442Y-96895518D01*
G37*
G36*
X147430442Y-96895518D02*
X147496627Y-96902037D01*
X147609853Y-96936384D01*
X147666467Y-96953557D01*
X147805087Y-97027652D01*
X147822991Y-97037222D01*
X147827594Y-97041000D01*
X147960186Y-97149814D01*
X148043448Y-97251271D01*
X148072778Y-97287009D01*
X148072779Y-97287011D01*
X148156443Y-97443533D01*
X148156443Y-97443534D01*
X148207963Y-97613373D01*
X148225359Y-97790000D01*
X148207963Y-97966627D01*
X148201565Y-97987718D01*
X148156443Y-98136467D01*
X148140657Y-98166000D01*
X148072778Y-98292991D01*
X148046674Y-98324799D01*
X147960186Y-98430186D01*
X147858729Y-98513448D01*
X147822991Y-98542778D01*
X147822989Y-98542779D01*
X147666467Y-98626443D01*
X147649799Y-98631499D01*
X147496627Y-98677963D01*
X147435331Y-98684000D01*
X147364260Y-98691000D01*
X147275740Y-98691000D01*
X147204669Y-98684000D01*
X147143373Y-98677963D01*
X146990201Y-98631499D01*
X146973533Y-98626443D01*
X146817011Y-98542779D01*
X146817009Y-98542778D01*
X146781271Y-98513448D01*
X146679814Y-98430186D01*
X146593326Y-98324799D01*
X146567222Y-98292991D01*
X146499343Y-98166000D01*
X146483557Y-98136467D01*
X146438435Y-97987718D01*
X146432037Y-97966627D01*
X146414641Y-97790000D01*
X146432037Y-97613373D01*
X146483557Y-97443534D01*
X146483557Y-97443533D01*
X146567221Y-97287011D01*
X146567222Y-97287009D01*
X146596552Y-97251271D01*
X146679814Y-97149814D01*
X146812406Y-97041000D01*
X146817009Y-97037222D01*
X146834913Y-97027652D01*
X146973533Y-96953557D01*
X147030147Y-96936384D01*
X147143373Y-96902037D01*
X147209558Y-96895518D01*
X147275740Y-96889000D01*
X147364260Y-96889000D01*
X147430442Y-96895518D01*
X147430442Y-96895518D01*
G37*
G36*
X135521000Y-98166000D02*
X133719000Y-98166000D01*
X133719000Y-97414000D01*
X135521000Y-97414000D01*
X135521000Y-98166000D01*
X135521000Y-98166000D01*
G37*
G36*
X128221000Y-98166000D02*
X126419000Y-98166000D01*
X126419000Y-97414000D01*
X128221000Y-97414000D01*
X128221000Y-98166000D01*
X128221000Y-98166000D01*
G37*
G36*
X156798677Y-95263465D02*
X156836364Y-95274898D01*
X156871103Y-95293466D01*
X156901548Y-95318452D01*
X156926534Y-95348897D01*
X156945102Y-95383636D01*
X156956535Y-95421323D01*
X156961000Y-95466661D01*
X156961000Y-96303339D01*
X156956535Y-96348677D01*
X156945102Y-96386364D01*
X156926534Y-96421103D01*
X156901548Y-96451548D01*
X156871103Y-96476534D01*
X156836364Y-96495102D01*
X156798677Y-96506535D01*
X156753339Y-96511000D01*
X155666661Y-96511000D01*
X155621323Y-96506535D01*
X155583636Y-96495102D01*
X155548897Y-96476534D01*
X155518452Y-96451548D01*
X155493466Y-96421103D01*
X155474898Y-96386364D01*
X155463465Y-96348677D01*
X155459000Y-96303339D01*
X155459000Y-95466661D01*
X155463465Y-95421323D01*
X155474898Y-95383636D01*
X155493466Y-95348897D01*
X155518452Y-95318452D01*
X155548897Y-95293466D01*
X155583636Y-95274898D01*
X155621323Y-95263465D01*
X155666661Y-95259000D01*
X156753339Y-95259000D01*
X156798677Y-95263465D01*
X156798677Y-95263465D01*
G37*
G36*
X147430442Y-94355518D02*
X147496627Y-94362037D01*
X147560069Y-94381282D01*
X147666467Y-94413557D01*
X147746872Y-94456535D01*
X147822991Y-94497222D01*
X147847301Y-94517173D01*
X147960186Y-94609814D01*
X148025858Y-94689837D01*
X148072778Y-94747009D01*
X148072779Y-94747011D01*
X148156443Y-94903533D01*
X148156443Y-94903534D01*
X148207963Y-95073373D01*
X148225359Y-95250000D01*
X148207963Y-95426627D01*
X148192356Y-95478075D01*
X148156443Y-95596467D01*
X148124032Y-95657103D01*
X148072778Y-95752991D01*
X148043448Y-95788729D01*
X147960186Y-95890186D01*
X147858729Y-95973448D01*
X147822991Y-96002778D01*
X147822989Y-96002779D01*
X147666467Y-96086443D01*
X147609853Y-96103616D01*
X147496627Y-96137963D01*
X147430443Y-96144481D01*
X147364260Y-96151000D01*
X147275740Y-96151000D01*
X147209558Y-96144482D01*
X147143373Y-96137963D01*
X147030147Y-96103616D01*
X146973533Y-96086443D01*
X146817011Y-96002779D01*
X146817009Y-96002778D01*
X146781271Y-95973448D01*
X146679814Y-95890186D01*
X146596552Y-95788729D01*
X146567222Y-95752991D01*
X146515968Y-95657103D01*
X146483557Y-95596467D01*
X146447644Y-95478075D01*
X146432037Y-95426627D01*
X146414641Y-95250000D01*
X146432037Y-95073373D01*
X146483557Y-94903534D01*
X146483557Y-94903533D01*
X146567221Y-94747011D01*
X146567222Y-94747009D01*
X146614142Y-94689837D01*
X146679814Y-94609814D01*
X146792699Y-94517173D01*
X146817009Y-94497222D01*
X146893128Y-94456535D01*
X146973533Y-94413557D01*
X147079931Y-94381282D01*
X147143373Y-94362037D01*
X147209557Y-94355519D01*
X147275740Y-94349000D01*
X147364260Y-94349000D01*
X147430442Y-94355518D01*
X147430442Y-94355518D01*
G37*
G36*
X150761000Y-96151000D02*
X148959000Y-96151000D01*
X148959000Y-94349000D01*
X150761000Y-94349000D01*
X150761000Y-96151000D01*
X150761000Y-96151000D01*
G37*
G36*
X128721000Y-95751000D02*
X127819000Y-95751000D01*
X127819000Y-94749000D01*
X128721000Y-94749000D01*
X128721000Y-95751000D01*
X128721000Y-95751000D01*
G37*
G36*
X141687677Y-94249465D02*
X141725364Y-94260898D01*
X141760103Y-94279466D01*
X141790548Y-94304452D01*
X141815534Y-94334897D01*
X141834102Y-94369636D01*
X141845535Y-94407323D01*
X141850000Y-94452661D01*
X141850000Y-95539339D01*
X141845535Y-95584677D01*
X141834102Y-95622364D01*
X141815534Y-95657103D01*
X141790548Y-95687548D01*
X141760103Y-95712534D01*
X141725364Y-95731102D01*
X141687677Y-95742535D01*
X141642339Y-95747000D01*
X140805661Y-95747000D01*
X140760323Y-95742535D01*
X140722636Y-95731102D01*
X140687897Y-95712534D01*
X140657452Y-95687548D01*
X140632466Y-95657103D01*
X140613898Y-95622364D01*
X140602465Y-95584677D01*
X140598000Y-95539339D01*
X140598000Y-94452661D01*
X140602465Y-94407323D01*
X140613898Y-94369636D01*
X140632466Y-94334897D01*
X140657452Y-94304452D01*
X140687897Y-94279466D01*
X140722636Y-94260898D01*
X140760323Y-94249465D01*
X140805661Y-94245000D01*
X141642339Y-94245000D01*
X141687677Y-94249465D01*
X141687677Y-94249465D01*
G37*
G36*
X143737677Y-94249465D02*
X143775364Y-94260898D01*
X143810103Y-94279466D01*
X143840548Y-94304452D01*
X143865534Y-94334897D01*
X143884102Y-94369636D01*
X143895535Y-94407323D01*
X143900000Y-94452661D01*
X143900000Y-95539339D01*
X143895535Y-95584677D01*
X143884102Y-95622364D01*
X143865534Y-95657103D01*
X143840548Y-95687548D01*
X143810103Y-95712534D01*
X143775364Y-95731102D01*
X143737677Y-95742535D01*
X143692339Y-95747000D01*
X142855661Y-95747000D01*
X142810323Y-95742535D01*
X142772636Y-95731102D01*
X142737897Y-95712534D01*
X142707452Y-95687548D01*
X142682466Y-95657103D01*
X142663898Y-95622364D01*
X142652465Y-95584677D01*
X142648000Y-95539339D01*
X142648000Y-94452661D01*
X142652465Y-94407323D01*
X142663898Y-94369636D01*
X142682466Y-94334897D01*
X142707452Y-94304452D01*
X142737897Y-94279466D01*
X142772636Y-94260898D01*
X142810323Y-94249465D01*
X142855661Y-94245000D01*
X143692339Y-94245000D01*
X143737677Y-94249465D01*
X143737677Y-94249465D01*
G37*
G36*
X133176677Y-93884465D02*
X133214364Y-93895898D01*
X133249103Y-93914466D01*
X133279548Y-93939452D01*
X133304534Y-93969897D01*
X133323102Y-94004636D01*
X133334535Y-94042323D01*
X133339000Y-94087661D01*
X133339000Y-94924339D01*
X133334535Y-94969677D01*
X133323102Y-95007364D01*
X133304534Y-95042103D01*
X133279548Y-95072548D01*
X133249103Y-95097534D01*
X133214364Y-95116102D01*
X133176677Y-95127535D01*
X133131339Y-95132000D01*
X132044661Y-95132000D01*
X131999323Y-95127535D01*
X131961636Y-95116102D01*
X131926897Y-95097534D01*
X131896452Y-95072548D01*
X131871466Y-95042103D01*
X131852898Y-95007364D01*
X131841465Y-94969677D01*
X131837000Y-94924339D01*
X131837000Y-94087661D01*
X131841465Y-94042323D01*
X131852898Y-94004636D01*
X131871466Y-93969897D01*
X131896452Y-93939452D01*
X131926897Y-93914466D01*
X131961636Y-93895898D01*
X131999323Y-93884465D01*
X132044661Y-93880000D01*
X133131339Y-93880000D01*
X133176677Y-93884465D01*
X133176677Y-93884465D01*
G37*
G36*
X125048677Y-93866465D02*
X125086364Y-93877898D01*
X125121103Y-93896466D01*
X125151548Y-93921452D01*
X125176534Y-93951897D01*
X125195102Y-93986636D01*
X125206535Y-94024323D01*
X125211000Y-94069661D01*
X125211000Y-94906339D01*
X125206535Y-94951677D01*
X125195102Y-94989364D01*
X125176534Y-95024103D01*
X125151548Y-95054548D01*
X125121103Y-95079534D01*
X125086364Y-95098102D01*
X125048677Y-95109535D01*
X125003339Y-95114000D01*
X123916661Y-95114000D01*
X123871323Y-95109535D01*
X123833636Y-95098102D01*
X123798897Y-95079534D01*
X123768452Y-95054548D01*
X123743466Y-95024103D01*
X123724898Y-94989364D01*
X123713465Y-94951677D01*
X123709000Y-94906339D01*
X123709000Y-94069661D01*
X123713465Y-94024323D01*
X123724898Y-93986636D01*
X123743466Y-93951897D01*
X123768452Y-93921452D01*
X123798897Y-93896466D01*
X123833636Y-93877898D01*
X123871323Y-93866465D01*
X123916661Y-93862000D01*
X125003339Y-93862000D01*
X125048677Y-93866465D01*
X125048677Y-93866465D01*
G37*
G36*
X135488643Y-93209781D02*
X135634415Y-93270162D01*
X135765611Y-93357824D01*
X135877176Y-93469389D01*
X135964838Y-93600585D01*
X136025219Y-93746357D01*
X136056000Y-93901107D01*
X136056000Y-94058893D01*
X136025219Y-94213643D01*
X135964838Y-94359415D01*
X135877176Y-94490611D01*
X135765611Y-94602176D01*
X135634415Y-94689838D01*
X135488643Y-94750219D01*
X135333893Y-94781000D01*
X135176107Y-94781000D01*
X135021357Y-94750219D01*
X134875585Y-94689838D01*
X134744389Y-94602176D01*
X134632824Y-94490611D01*
X134545162Y-94359415D01*
X134484781Y-94213643D01*
X134454000Y-94058893D01*
X134454000Y-93901107D01*
X134484781Y-93746357D01*
X134545162Y-93600585D01*
X134632824Y-93469389D01*
X134744389Y-93357824D01*
X134875585Y-93270162D01*
X135021357Y-93209781D01*
X135176107Y-93179000D01*
X135333893Y-93179000D01*
X135488643Y-93209781D01*
X135488643Y-93209781D01*
G37*
G36*
X156798677Y-93213465D02*
X156836364Y-93224898D01*
X156871103Y-93243466D01*
X156901548Y-93268452D01*
X156926534Y-93298897D01*
X156945102Y-93333636D01*
X156956535Y-93371323D01*
X156961000Y-93416661D01*
X156961000Y-94253339D01*
X156956535Y-94298677D01*
X156945102Y-94336364D01*
X156926534Y-94371103D01*
X156901548Y-94401548D01*
X156871103Y-94426534D01*
X156836364Y-94445102D01*
X156798677Y-94456535D01*
X156753339Y-94461000D01*
X155666661Y-94461000D01*
X155621323Y-94456535D01*
X155583636Y-94445102D01*
X155548897Y-94426534D01*
X155518452Y-94401548D01*
X155493466Y-94371103D01*
X155474898Y-94336364D01*
X155463465Y-94298677D01*
X155459000Y-94253339D01*
X155459000Y-93416661D01*
X155463465Y-93371323D01*
X155474898Y-93333636D01*
X155493466Y-93298897D01*
X155518452Y-93268452D01*
X155548897Y-93243466D01*
X155583636Y-93224898D01*
X155621323Y-93213465D01*
X155666661Y-93209000D01*
X156753339Y-93209000D01*
X156798677Y-93213465D01*
X156798677Y-93213465D01*
G37*
G36*
X114851000Y-93177262D02*
X114853402Y-93201648D01*
X114860515Y-93225097D01*
X114872066Y-93246708D01*
X114887612Y-93265650D01*
X114906554Y-93281196D01*
X114928165Y-93292747D01*
X114951614Y-93299860D01*
X114976000Y-93302262D01*
X115000386Y-93299860D01*
X115023835Y-93292747D01*
X115045446Y-93281196D01*
X115064388Y-93265650D01*
X115086236Y-93236192D01*
X115109644Y-93192400D01*
X115178499Y-93108499D01*
X115262400Y-93039644D01*
X115358121Y-92988479D01*
X115461985Y-92956973D01*
X115542933Y-92949000D01*
X115597067Y-92949000D01*
X115678015Y-92956973D01*
X115781879Y-92988479D01*
X115877600Y-93039644D01*
X115961501Y-93108499D01*
X116030356Y-93192400D01*
X116081521Y-93288121D01*
X116113027Y-93391985D01*
X116123666Y-93500000D01*
X116113027Y-93608015D01*
X116081521Y-93711879D01*
X116030356Y-93807600D01*
X115961501Y-93891501D01*
X115877600Y-93960356D01*
X115781879Y-94011521D01*
X115678015Y-94043027D01*
X115597067Y-94051000D01*
X115542933Y-94051000D01*
X115461985Y-94043027D01*
X115358121Y-94011521D01*
X115262400Y-93960356D01*
X115178499Y-93891501D01*
X115109644Y-93807600D01*
X115086234Y-93763805D01*
X115072626Y-93743439D01*
X115055299Y-93726111D01*
X115034924Y-93712498D01*
X115012285Y-93703120D01*
X114988252Y-93698340D01*
X114963748Y-93698340D01*
X114939714Y-93703121D01*
X114917075Y-93712498D01*
X114896701Y-93726112D01*
X114879373Y-93743439D01*
X114865760Y-93763814D01*
X114856382Y-93786453D01*
X114851000Y-93822738D01*
X114851000Y-94051000D01*
X113749000Y-94051000D01*
X113749000Y-92949000D01*
X114851000Y-92949000D01*
X114851000Y-93177262D01*
X114851000Y-93177262D01*
G37*
G36*
X129671000Y-93751000D02*
X128769000Y-93751000D01*
X128769000Y-92749000D01*
X129671000Y-92749000D01*
X129671000Y-93751000D01*
X129671000Y-93751000D01*
G37*
G36*
X127771000Y-93751000D02*
X126869000Y-93751000D01*
X126869000Y-92749000D01*
X127771000Y-92749000D01*
X127771000Y-93751000D01*
X127771000Y-93751000D01*
G37*
G36*
X133176677Y-91834465D02*
X133214364Y-91845898D01*
X133249103Y-91864466D01*
X133279548Y-91889452D01*
X133304534Y-91919897D01*
X133323102Y-91954636D01*
X133334535Y-91992323D01*
X133339000Y-92037661D01*
X133339000Y-92874339D01*
X133334535Y-92919677D01*
X133323102Y-92957364D01*
X133304534Y-92992103D01*
X133279548Y-93022548D01*
X133249103Y-93047534D01*
X133214364Y-93066102D01*
X133176677Y-93077535D01*
X133131339Y-93082000D01*
X132044661Y-93082000D01*
X131999323Y-93077535D01*
X131961636Y-93066102D01*
X131926897Y-93047534D01*
X131896452Y-93022548D01*
X131871466Y-92992103D01*
X131852898Y-92957364D01*
X131841465Y-92919677D01*
X131837000Y-92874339D01*
X131837000Y-92037661D01*
X131841465Y-91992323D01*
X131852898Y-91954636D01*
X131871466Y-91919897D01*
X131896452Y-91889452D01*
X131926897Y-91864466D01*
X131961636Y-91845898D01*
X131999323Y-91834465D01*
X132044661Y-91830000D01*
X133131339Y-91830000D01*
X133176677Y-91834465D01*
X133176677Y-91834465D01*
G37*
G36*
X125048677Y-91816465D02*
X125086364Y-91827898D01*
X125121103Y-91846466D01*
X125151548Y-91871452D01*
X125176534Y-91901897D01*
X125195102Y-91936636D01*
X125206535Y-91974323D01*
X125211000Y-92019661D01*
X125211000Y-92856339D01*
X125206535Y-92901677D01*
X125195102Y-92939364D01*
X125176534Y-92974103D01*
X125151548Y-93004548D01*
X125121103Y-93029534D01*
X125086364Y-93048102D01*
X125048677Y-93059535D01*
X125003339Y-93064000D01*
X123916661Y-93064000D01*
X123871323Y-93059535D01*
X123833636Y-93048102D01*
X123798897Y-93029534D01*
X123768452Y-93004548D01*
X123743466Y-92974103D01*
X123724898Y-92939364D01*
X123713465Y-92901677D01*
X123709000Y-92856339D01*
X123709000Y-92019661D01*
X123713465Y-91974323D01*
X123724898Y-91936636D01*
X123743466Y-91901897D01*
X123768452Y-91871452D01*
X123798897Y-91846466D01*
X123833636Y-91827898D01*
X123871323Y-91816465D01*
X123916661Y-91812000D01*
X125003339Y-91812000D01*
X125048677Y-91816465D01*
X125048677Y-91816465D01*
G37*
M02*
