G04 #@! TF.GenerationSoftware,KiCad,Pcbnew,(5.0.2)-1*
G04 #@! TF.CreationDate,2019-09-14T00:07:01-04:00*
G04 #@! TF.ProjectId,TARC Altimeter,54415243-2041-46c7-9469-6d657465722e,0.1*
G04 #@! TF.SameCoordinates,Original*
G04 #@! TF.FileFunction,Legend,Bot*
G04 #@! TF.FilePolarity,Positive*
%FSLAX46Y46*%
G04 Gerber Fmt 4.6, Leading zero omitted, Abs format (unit mm)*
G04 Created by KiCad (PCBNEW (5.0.2)-1) date 9/14/2019 12:07:01 AM*
%MOMM*%
%LPD*%
G01*
G04 APERTURE LIST*
%ADD10C,0.120000*%
%ADD11C,0.150000*%
%ADD12C,0.100000*%
G04 APERTURE END LIST*
D10*
G04 #@! TO.C,J3*
X121506000Y-101602000D02*
X120396000Y-101602000D01*
X121506000Y-102362000D02*
X121506000Y-101602000D01*
X119832529Y-103122000D02*
X119286000Y-103122000D01*
X121506000Y-103122000D02*
X120959471Y-103122000D01*
X119286000Y-103122000D02*
X119286000Y-104327000D01*
X121506000Y-103122000D02*
X121506000Y-104327000D01*
X120088470Y-104327000D02*
X119286000Y-104327000D01*
X121506000Y-104327000D02*
X120703530Y-104327000D01*
G04 #@! TO.C,C3*
X137923748Y-102310000D02*
X138446252Y-102310000D01*
X137923748Y-100890000D02*
X138446252Y-100890000D01*
D11*
G04 #@! TO.C,U2*
X128220000Y-102450000D02*
X128220000Y-102245000D01*
X133720000Y-102450000D02*
X133720000Y-102150000D01*
X133720000Y-96940000D02*
X133720000Y-97240000D01*
X128220000Y-96940000D02*
X128220000Y-97240000D01*
X128220000Y-102450000D02*
X133720000Y-102450000D01*
X128220000Y-96940000D02*
X133720000Y-96940000D01*
X128220000Y-102245000D02*
X126470000Y-102245000D01*
D10*
G04 #@! TO.C,C2*
X141987748Y-95706000D02*
X142510252Y-95706000D01*
X141987748Y-94286000D02*
X142510252Y-94286000D01*
G04 #@! TO.C,C5*
X125170000Y-93724252D02*
X125170000Y-93201748D01*
X123750000Y-93724252D02*
X123750000Y-93201748D01*
G04 #@! TO.C,C6*
X131878000Y-93742252D02*
X131878000Y-93219748D01*
X133298000Y-93742252D02*
X133298000Y-93219748D01*
G04 #@! TO.C,Q1*
X155430000Y-100340000D02*
X155430000Y-101270000D01*
X155430000Y-103500000D02*
X155430000Y-102570000D01*
X155430000Y-103500000D02*
X153270000Y-103500000D01*
X155430000Y-100340000D02*
X153970000Y-100340000D01*
G04 #@! TO.C,R1*
X155500000Y-94598748D02*
X155500000Y-95121252D01*
X156920000Y-94598748D02*
X156920000Y-95121252D01*
G04 #@! TO.C,TP1*
X121854000Y-98044000D02*
G75*
G03X121854000Y-98044000I-950000J0D01*
G01*
G04 #@! TO.C,TP2*
X136205000Y-93980000D02*
G75*
G03X136205000Y-93980000I-950000J0D01*
G01*
G04 #@! TO.C,U3*
X129850000Y-95010000D02*
X128920000Y-95010000D01*
X126690000Y-95010000D02*
X127620000Y-95010000D01*
X126690000Y-95010000D02*
X126690000Y-92850000D01*
X129850000Y-95010000D02*
X129850000Y-93550000D01*
D12*
G04 #@! TO.C,U4*
X141270000Y-96440000D02*
X141270000Y-96920000D01*
X141270000Y-98660000D02*
X141270000Y-99140000D01*
X141270000Y-99140000D02*
X140630000Y-99140000D01*
X141270000Y-96440000D02*
X140630000Y-96440000D01*
X139710000Y-99140000D02*
X139070000Y-99140000D01*
X139070000Y-98660000D02*
X139070000Y-99140000D01*
X139710000Y-96440000D02*
X139070000Y-96440000D01*
D10*
G04 #@! TO.C,D1*
X158044000Y-100559000D02*
X158044000Y-97699000D01*
X158044000Y-97699000D02*
X159964000Y-97699000D01*
X159964000Y-97699000D02*
X159964000Y-100559000D01*
G04 #@! TO.C,J2*
X151190000Y-101660000D02*
X145990000Y-101660000D01*
X151190000Y-96520000D02*
X151190000Y-101660000D01*
X145990000Y-93920000D02*
X145990000Y-101660000D01*
X151190000Y-96520000D02*
X148590000Y-96520000D01*
X148590000Y-96520000D02*
X148590000Y-93920000D01*
X148590000Y-93920000D02*
X145990000Y-93920000D01*
X151190000Y-95250000D02*
X151190000Y-93920000D01*
X151190000Y-93920000D02*
X149860000Y-93920000D01*
G04 #@! TO.C,J3*
D11*
X117308380Y-102790666D02*
X118022666Y-102790666D01*
X118165523Y-102743047D01*
X118260761Y-102647809D01*
X118308380Y-102504952D01*
X118308380Y-102409714D01*
X117308380Y-103171619D02*
X117308380Y-103790666D01*
X117689333Y-103457333D01*
X117689333Y-103600190D01*
X117736952Y-103695428D01*
X117784571Y-103743047D01*
X117879809Y-103790666D01*
X118117904Y-103790666D01*
X118213142Y-103743047D01*
X118260761Y-103695428D01*
X118308380Y-103600190D01*
X118308380Y-103314476D01*
X118260761Y-103219238D01*
X118213142Y-103171619D01*
G04 #@! TO.C,C3*
X141136666Y-101957142D02*
X141184285Y-102004761D01*
X141327142Y-102052380D01*
X141422380Y-102052380D01*
X141565238Y-102004761D01*
X141660476Y-101909523D01*
X141708095Y-101814285D01*
X141755714Y-101623809D01*
X141755714Y-101480952D01*
X141708095Y-101290476D01*
X141660476Y-101195238D01*
X141565238Y-101100000D01*
X141422380Y-101052380D01*
X141327142Y-101052380D01*
X141184285Y-101100000D01*
X141136666Y-101147619D01*
X140803333Y-101052380D02*
X140184285Y-101052380D01*
X140517619Y-101433333D01*
X140374761Y-101433333D01*
X140279523Y-101480952D01*
X140231904Y-101528571D01*
X140184285Y-101623809D01*
X140184285Y-101861904D01*
X140231904Y-101957142D01*
X140279523Y-102004761D01*
X140374761Y-102052380D01*
X140660476Y-102052380D01*
X140755714Y-102004761D01*
X140803333Y-101957142D01*
G04 #@! TO.C,C2*
X145200666Y-95353142D02*
X145248285Y-95400761D01*
X145391142Y-95448380D01*
X145486380Y-95448380D01*
X145629238Y-95400761D01*
X145724476Y-95305523D01*
X145772095Y-95210285D01*
X145819714Y-95019809D01*
X145819714Y-94876952D01*
X145772095Y-94686476D01*
X145724476Y-94591238D01*
X145629238Y-94496000D01*
X145486380Y-94448380D01*
X145391142Y-94448380D01*
X145248285Y-94496000D01*
X145200666Y-94543619D01*
X144819714Y-94543619D02*
X144772095Y-94496000D01*
X144676857Y-94448380D01*
X144438761Y-94448380D01*
X144343523Y-94496000D01*
X144295904Y-94543619D01*
X144248285Y-94638857D01*
X144248285Y-94734095D01*
X144295904Y-94876952D01*
X144867333Y-95448380D01*
X144248285Y-95448380D01*
G04 #@! TO.C,C5*
X122912142Y-94321333D02*
X122959761Y-94273714D01*
X123007380Y-94130857D01*
X123007380Y-94035619D01*
X122959761Y-93892761D01*
X122864523Y-93797523D01*
X122769285Y-93749904D01*
X122578809Y-93702285D01*
X122435952Y-93702285D01*
X122245476Y-93749904D01*
X122150238Y-93797523D01*
X122055000Y-93892761D01*
X122007380Y-94035619D01*
X122007380Y-94130857D01*
X122055000Y-94273714D01*
X122102619Y-94321333D01*
X122007380Y-95226095D02*
X122007380Y-94749904D01*
X122483571Y-94702285D01*
X122435952Y-94749904D01*
X122388333Y-94845142D01*
X122388333Y-95083238D01*
X122435952Y-95178476D01*
X122483571Y-95226095D01*
X122578809Y-95273714D01*
X122816904Y-95273714D01*
X122912142Y-95226095D01*
X122959761Y-95178476D01*
X123007380Y-95083238D01*
X123007380Y-94845142D01*
X122959761Y-94749904D01*
X122912142Y-94702285D01*
G04 #@! TO.C,C6*
X130722666Y-92305142D02*
X130770285Y-92352761D01*
X130913142Y-92400380D01*
X131008380Y-92400380D01*
X131151238Y-92352761D01*
X131246476Y-92257523D01*
X131294095Y-92162285D01*
X131341714Y-91971809D01*
X131341714Y-91828952D01*
X131294095Y-91638476D01*
X131246476Y-91543238D01*
X131151238Y-91448000D01*
X131008380Y-91400380D01*
X130913142Y-91400380D01*
X130770285Y-91448000D01*
X130722666Y-91495619D01*
X129865523Y-91400380D02*
X130056000Y-91400380D01*
X130151238Y-91448000D01*
X130198857Y-91495619D01*
X130294095Y-91638476D01*
X130341714Y-91828952D01*
X130341714Y-92209904D01*
X130294095Y-92305142D01*
X130246476Y-92352761D01*
X130151238Y-92400380D01*
X129960761Y-92400380D01*
X129865523Y-92352761D01*
X129817904Y-92305142D01*
X129770285Y-92209904D01*
X129770285Y-91971809D01*
X129817904Y-91876571D01*
X129865523Y-91828952D01*
X129960761Y-91781333D01*
X130151238Y-91781333D01*
X130246476Y-91828952D01*
X130294095Y-91876571D01*
X130341714Y-91971809D01*
G04 #@! TO.C,R1*
X159202380Y-93178333D02*
X158726190Y-92845000D01*
X159202380Y-92606904D02*
X158202380Y-92606904D01*
X158202380Y-92987857D01*
X158250000Y-93083095D01*
X158297619Y-93130714D01*
X158392857Y-93178333D01*
X158535714Y-93178333D01*
X158630952Y-93130714D01*
X158678571Y-93083095D01*
X158726190Y-92987857D01*
X158726190Y-92606904D01*
X159202380Y-94130714D02*
X159202380Y-93559285D01*
X159202380Y-93845000D02*
X158202380Y-93845000D01*
X158345238Y-93749761D01*
X158440476Y-93654523D01*
X158488095Y-93559285D01*
G04 #@! TO.C,TP1*
X123181904Y-99528380D02*
X122610476Y-99528380D01*
X122896190Y-100528380D02*
X122896190Y-99528380D01*
X122277142Y-100528380D02*
X122277142Y-99528380D01*
X121896190Y-99528380D01*
X121800952Y-99576000D01*
X121753333Y-99623619D01*
X121705714Y-99718857D01*
X121705714Y-99861714D01*
X121753333Y-99956952D01*
X121800952Y-100004571D01*
X121896190Y-100052190D01*
X122277142Y-100052190D01*
X120753333Y-100528380D02*
X121324761Y-100528380D01*
X121039047Y-100528380D02*
X121039047Y-99528380D01*
X121134285Y-99671238D01*
X121229523Y-99766476D01*
X121324761Y-99814095D01*
G04 #@! TO.C,TP2*
X136516904Y-95972380D02*
X135945476Y-95972380D01*
X136231190Y-96972380D02*
X136231190Y-95972380D01*
X135612142Y-96972380D02*
X135612142Y-95972380D01*
X135231190Y-95972380D01*
X135135952Y-96020000D01*
X135088333Y-96067619D01*
X135040714Y-96162857D01*
X135040714Y-96305714D01*
X135088333Y-96400952D01*
X135135952Y-96448571D01*
X135231190Y-96496190D01*
X135612142Y-96496190D01*
X134659761Y-96067619D02*
X134612142Y-96020000D01*
X134516904Y-95972380D01*
X134278809Y-95972380D01*
X134183571Y-96020000D01*
X134135952Y-96067619D01*
X134088333Y-96162857D01*
X134088333Y-96258095D01*
X134135952Y-96400952D01*
X134707380Y-96972380D01*
X134088333Y-96972380D01*
G04 #@! TO.C,D1*
X157806380Y-98820904D02*
X156806380Y-98820904D01*
X156806380Y-99059000D01*
X156854000Y-99201857D01*
X156949238Y-99297095D01*
X157044476Y-99344714D01*
X157234952Y-99392333D01*
X157377809Y-99392333D01*
X157568285Y-99344714D01*
X157663523Y-99297095D01*
X157758761Y-99201857D01*
X157806380Y-99059000D01*
X157806380Y-98820904D01*
X157806380Y-100344714D02*
X157806380Y-99773285D01*
X157806380Y-100059000D02*
X156806380Y-100059000D01*
X156949238Y-99963761D01*
X157044476Y-99868523D01*
X157092095Y-99773285D01*
G04 #@! TO.C,J2*
X148923333Y-92372380D02*
X148923333Y-93086666D01*
X148970952Y-93229523D01*
X149066190Y-93324761D01*
X149209047Y-93372380D01*
X149304285Y-93372380D01*
X148494761Y-92467619D02*
X148447142Y-92420000D01*
X148351904Y-92372380D01*
X148113809Y-92372380D01*
X148018571Y-92420000D01*
X147970952Y-92467619D01*
X147923333Y-92562857D01*
X147923333Y-92658095D01*
X147970952Y-92800952D01*
X148542380Y-93372380D01*
X147923333Y-93372380D01*
G04 #@! TD*
M02*
