G04 #@! TF.GenerationSoftware,KiCad,Pcbnew,(5.0.2)-1*
G04 #@! TF.CreationDate,2019-09-14T00:07:01-04:00*
G04 #@! TF.ProjectId,TARC Altimeter,54415243-2041-46c7-9469-6d657465722e,0.1*
G04 #@! TF.SameCoordinates,Original*
G04 #@! TF.FileFunction,Copper,L2,Bot*
G04 #@! TF.FilePolarity,Positive*
%FSLAX46Y46*%
G04 Gerber Fmt 4.6, Leading zero omitted, Abs format (unit mm)*
G04 Created by KiCad (PCBNEW (5.0.2)-1) date 9/14/2019 12:07:01 AM*
%MOMM*%
%LPD*%
G01*
G04 APERTURE LIST*
G04 #@! TA.AperFunction,ComponentPad*
%ADD10O,1.000000X1.000000*%
G04 #@! TD*
G04 #@! TA.AperFunction,ComponentPad*
%ADD11R,1.000000X1.000000*%
G04 #@! TD*
G04 #@! TA.AperFunction,ComponentPad*
%ADD12C,1.524000*%
G04 #@! TD*
G04 #@! TA.AperFunction,Conductor*
%ADD13C,0.100000*%
G04 #@! TD*
G04 #@! TA.AperFunction,SMDPad,CuDef*
%ADD14C,1.150000*%
G04 #@! TD*
G04 #@! TA.AperFunction,SMDPad,CuDef*
%ADD15R,1.700000X0.650000*%
G04 #@! TD*
G04 #@! TA.AperFunction,ComponentPad*
%ADD16C,1.600000*%
G04 #@! TD*
G04 #@! TA.AperFunction,SMDPad,CuDef*
%ADD17R,0.900000X0.800000*%
G04 #@! TD*
G04 #@! TA.AperFunction,BGAPad,CuDef*
%ADD18C,1.500000*%
G04 #@! TD*
G04 #@! TA.AperFunction,SMDPad,CuDef*
%ADD19R,0.800000X0.900000*%
G04 #@! TD*
G04 #@! TA.AperFunction,SMDPad,CuDef*
%ADD20R,0.500000X0.350000*%
G04 #@! TD*
G04 #@! TA.AperFunction,ComponentPad*
%ADD21R,1.700000X1.700000*%
G04 #@! TD*
G04 #@! TA.AperFunction,ComponentPad*
%ADD22O,1.700000X1.700000*%
G04 #@! TD*
G04 #@! TA.AperFunction,ComponentPad*
%ADD23C,5.600000*%
G04 #@! TD*
G04 #@! TA.AperFunction,ViaPad*
%ADD24C,0.800000*%
G04 #@! TD*
G04 #@! TA.AperFunction,Conductor*
%ADD25C,0.250000*%
G04 #@! TD*
G04 #@! TA.AperFunction,Conductor*
%ADD26C,0.254000*%
G04 #@! TD*
G04 APERTURE END LIST*
D10*
G04 #@! TO.P,J3,2*
G04 #@! TO.N,Net-(J3-Pad2)*
X120396000Y-103632000D03*
D11*
G04 #@! TO.P,J3,1*
G04 #@! TO.N,Net-(J3-Pad1)*
X120396000Y-102362000D03*
G04 #@! TD*
D12*
G04 #@! TO.P,U1,2*
G04 #@! TO.N,GND*
X155575000Y-98000000D03*
G04 #@! TO.P,U1,1*
G04 #@! TO.N,Net-(J1-Pad2)*
X123825000Y-98000000D03*
G04 #@! TD*
D13*
G04 #@! TO.N,+3V3*
G04 #@! TO.C,C3*
G36*
X137509505Y-100901204D02*
X137533773Y-100904804D01*
X137557572Y-100910765D01*
X137580671Y-100919030D01*
X137602850Y-100929520D01*
X137623893Y-100942132D01*
X137643599Y-100956747D01*
X137661777Y-100973223D01*
X137678253Y-100991401D01*
X137692868Y-101011107D01*
X137705480Y-101032150D01*
X137715970Y-101054329D01*
X137724235Y-101077428D01*
X137730196Y-101101227D01*
X137733796Y-101125495D01*
X137735000Y-101149999D01*
X137735000Y-102050001D01*
X137733796Y-102074505D01*
X137730196Y-102098773D01*
X137724235Y-102122572D01*
X137715970Y-102145671D01*
X137705480Y-102167850D01*
X137692868Y-102188893D01*
X137678253Y-102208599D01*
X137661777Y-102226777D01*
X137643599Y-102243253D01*
X137623893Y-102257868D01*
X137602850Y-102270480D01*
X137580671Y-102280970D01*
X137557572Y-102289235D01*
X137533773Y-102295196D01*
X137509505Y-102298796D01*
X137485001Y-102300000D01*
X136834999Y-102300000D01*
X136810495Y-102298796D01*
X136786227Y-102295196D01*
X136762428Y-102289235D01*
X136739329Y-102280970D01*
X136717150Y-102270480D01*
X136696107Y-102257868D01*
X136676401Y-102243253D01*
X136658223Y-102226777D01*
X136641747Y-102208599D01*
X136627132Y-102188893D01*
X136614520Y-102167850D01*
X136604030Y-102145671D01*
X136595765Y-102122572D01*
X136589804Y-102098773D01*
X136586204Y-102074505D01*
X136585000Y-102050001D01*
X136585000Y-101149999D01*
X136586204Y-101125495D01*
X136589804Y-101101227D01*
X136595765Y-101077428D01*
X136604030Y-101054329D01*
X136614520Y-101032150D01*
X136627132Y-101011107D01*
X136641747Y-100991401D01*
X136658223Y-100973223D01*
X136676401Y-100956747D01*
X136696107Y-100942132D01*
X136717150Y-100929520D01*
X136739329Y-100919030D01*
X136762428Y-100910765D01*
X136786227Y-100904804D01*
X136810495Y-100901204D01*
X136834999Y-100900000D01*
X137485001Y-100900000D01*
X137509505Y-100901204D01*
X137509505Y-100901204D01*
G37*
D14*
G04 #@! TD*
G04 #@! TO.P,C3,1*
G04 #@! TO.N,+3V3*
X137160000Y-101600000D03*
D13*
G04 #@! TO.N,GND*
G04 #@! TO.C,C3*
G36*
X139559505Y-100901204D02*
X139583773Y-100904804D01*
X139607572Y-100910765D01*
X139630671Y-100919030D01*
X139652850Y-100929520D01*
X139673893Y-100942132D01*
X139693599Y-100956747D01*
X139711777Y-100973223D01*
X139728253Y-100991401D01*
X139742868Y-101011107D01*
X139755480Y-101032150D01*
X139765970Y-101054329D01*
X139774235Y-101077428D01*
X139780196Y-101101227D01*
X139783796Y-101125495D01*
X139785000Y-101149999D01*
X139785000Y-102050001D01*
X139783796Y-102074505D01*
X139780196Y-102098773D01*
X139774235Y-102122572D01*
X139765970Y-102145671D01*
X139755480Y-102167850D01*
X139742868Y-102188893D01*
X139728253Y-102208599D01*
X139711777Y-102226777D01*
X139693599Y-102243253D01*
X139673893Y-102257868D01*
X139652850Y-102270480D01*
X139630671Y-102280970D01*
X139607572Y-102289235D01*
X139583773Y-102295196D01*
X139559505Y-102298796D01*
X139535001Y-102300000D01*
X138884999Y-102300000D01*
X138860495Y-102298796D01*
X138836227Y-102295196D01*
X138812428Y-102289235D01*
X138789329Y-102280970D01*
X138767150Y-102270480D01*
X138746107Y-102257868D01*
X138726401Y-102243253D01*
X138708223Y-102226777D01*
X138691747Y-102208599D01*
X138677132Y-102188893D01*
X138664520Y-102167850D01*
X138654030Y-102145671D01*
X138645765Y-102122572D01*
X138639804Y-102098773D01*
X138636204Y-102074505D01*
X138635000Y-102050001D01*
X138635000Y-101149999D01*
X138636204Y-101125495D01*
X138639804Y-101101227D01*
X138645765Y-101077428D01*
X138654030Y-101054329D01*
X138664520Y-101032150D01*
X138677132Y-101011107D01*
X138691747Y-100991401D01*
X138708223Y-100973223D01*
X138726401Y-100956747D01*
X138746107Y-100942132D01*
X138767150Y-100929520D01*
X138789329Y-100919030D01*
X138812428Y-100910765D01*
X138836227Y-100904804D01*
X138860495Y-100901204D01*
X138884999Y-100900000D01*
X139535001Y-100900000D01*
X139559505Y-100901204D01*
X139559505Y-100901204D01*
G37*
D14*
G04 #@! TD*
G04 #@! TO.P,C3,2*
G04 #@! TO.N,GND*
X139210000Y-101600000D03*
D15*
G04 #@! TO.P,U2,1*
G04 #@! TO.N,RESET*
X127320000Y-101600000D03*
G04 #@! TO.P,U2,2*
G04 #@! TO.N,VGS*
X127320000Y-100330000D03*
G04 #@! TO.P,U2,3*
G04 #@! TO.N,Net-(J3-Pad1)*
X127320000Y-99060000D03*
G04 #@! TO.P,U2,4*
G04 #@! TO.N,GND*
X127320000Y-97790000D03*
G04 #@! TO.P,U2,5*
G04 #@! TO.N,MOSI*
X134620000Y-97790000D03*
G04 #@! TO.P,U2,6*
G04 #@! TO.N,MISO*
X134620000Y-99060000D03*
G04 #@! TO.P,U2,7*
G04 #@! TO.N,SCLK*
X134620000Y-100330000D03*
G04 #@! TO.P,U2,8*
G04 #@! TO.N,+3V3*
X134620000Y-101600000D03*
G04 #@! TD*
D16*
G04 #@! TO.P,C4,2*
G04 #@! TO.N,GND*
X117500000Y-100000000D03*
G04 #@! TO.P,C4,1*
G04 #@! TO.N,+12V*
X114000000Y-100000000D03*
G04 #@! TD*
D13*
G04 #@! TO.N,+3V3*
G04 #@! TO.C,C2*
G36*
X141573505Y-94297204D02*
X141597773Y-94300804D01*
X141621572Y-94306765D01*
X141644671Y-94315030D01*
X141666850Y-94325520D01*
X141687893Y-94338132D01*
X141707599Y-94352747D01*
X141725777Y-94369223D01*
X141742253Y-94387401D01*
X141756868Y-94407107D01*
X141769480Y-94428150D01*
X141779970Y-94450329D01*
X141788235Y-94473428D01*
X141794196Y-94497227D01*
X141797796Y-94521495D01*
X141799000Y-94545999D01*
X141799000Y-95446001D01*
X141797796Y-95470505D01*
X141794196Y-95494773D01*
X141788235Y-95518572D01*
X141779970Y-95541671D01*
X141769480Y-95563850D01*
X141756868Y-95584893D01*
X141742253Y-95604599D01*
X141725777Y-95622777D01*
X141707599Y-95639253D01*
X141687893Y-95653868D01*
X141666850Y-95666480D01*
X141644671Y-95676970D01*
X141621572Y-95685235D01*
X141597773Y-95691196D01*
X141573505Y-95694796D01*
X141549001Y-95696000D01*
X140898999Y-95696000D01*
X140874495Y-95694796D01*
X140850227Y-95691196D01*
X140826428Y-95685235D01*
X140803329Y-95676970D01*
X140781150Y-95666480D01*
X140760107Y-95653868D01*
X140740401Y-95639253D01*
X140722223Y-95622777D01*
X140705747Y-95604599D01*
X140691132Y-95584893D01*
X140678520Y-95563850D01*
X140668030Y-95541671D01*
X140659765Y-95518572D01*
X140653804Y-95494773D01*
X140650204Y-95470505D01*
X140649000Y-95446001D01*
X140649000Y-94545999D01*
X140650204Y-94521495D01*
X140653804Y-94497227D01*
X140659765Y-94473428D01*
X140668030Y-94450329D01*
X140678520Y-94428150D01*
X140691132Y-94407107D01*
X140705747Y-94387401D01*
X140722223Y-94369223D01*
X140740401Y-94352747D01*
X140760107Y-94338132D01*
X140781150Y-94325520D01*
X140803329Y-94315030D01*
X140826428Y-94306765D01*
X140850227Y-94300804D01*
X140874495Y-94297204D01*
X140898999Y-94296000D01*
X141549001Y-94296000D01*
X141573505Y-94297204D01*
X141573505Y-94297204D01*
G37*
D14*
G04 #@! TD*
G04 #@! TO.P,C2,1*
G04 #@! TO.N,+3V3*
X141224000Y-94996000D03*
D13*
G04 #@! TO.N,GND*
G04 #@! TO.C,C2*
G36*
X143623505Y-94297204D02*
X143647773Y-94300804D01*
X143671572Y-94306765D01*
X143694671Y-94315030D01*
X143716850Y-94325520D01*
X143737893Y-94338132D01*
X143757599Y-94352747D01*
X143775777Y-94369223D01*
X143792253Y-94387401D01*
X143806868Y-94407107D01*
X143819480Y-94428150D01*
X143829970Y-94450329D01*
X143838235Y-94473428D01*
X143844196Y-94497227D01*
X143847796Y-94521495D01*
X143849000Y-94545999D01*
X143849000Y-95446001D01*
X143847796Y-95470505D01*
X143844196Y-95494773D01*
X143838235Y-95518572D01*
X143829970Y-95541671D01*
X143819480Y-95563850D01*
X143806868Y-95584893D01*
X143792253Y-95604599D01*
X143775777Y-95622777D01*
X143757599Y-95639253D01*
X143737893Y-95653868D01*
X143716850Y-95666480D01*
X143694671Y-95676970D01*
X143671572Y-95685235D01*
X143647773Y-95691196D01*
X143623505Y-95694796D01*
X143599001Y-95696000D01*
X142948999Y-95696000D01*
X142924495Y-95694796D01*
X142900227Y-95691196D01*
X142876428Y-95685235D01*
X142853329Y-95676970D01*
X142831150Y-95666480D01*
X142810107Y-95653868D01*
X142790401Y-95639253D01*
X142772223Y-95622777D01*
X142755747Y-95604599D01*
X142741132Y-95584893D01*
X142728520Y-95563850D01*
X142718030Y-95541671D01*
X142709765Y-95518572D01*
X142703804Y-95494773D01*
X142700204Y-95470505D01*
X142699000Y-95446001D01*
X142699000Y-94545999D01*
X142700204Y-94521495D01*
X142703804Y-94497227D01*
X142709765Y-94473428D01*
X142718030Y-94450329D01*
X142728520Y-94428150D01*
X142741132Y-94407107D01*
X142755747Y-94387401D01*
X142772223Y-94369223D01*
X142790401Y-94352747D01*
X142810107Y-94338132D01*
X142831150Y-94325520D01*
X142853329Y-94315030D01*
X142876428Y-94306765D01*
X142900227Y-94300804D01*
X142924495Y-94297204D01*
X142948999Y-94296000D01*
X143599001Y-94296000D01*
X143623505Y-94297204D01*
X143623505Y-94297204D01*
G37*
D14*
G04 #@! TD*
G04 #@! TO.P,C2,2*
G04 #@! TO.N,GND*
X143274000Y-94996000D03*
D13*
G04 #@! TO.N,+12V*
G04 #@! TO.C,C5*
G36*
X124934505Y-93914204D02*
X124958773Y-93917804D01*
X124982572Y-93923765D01*
X125005671Y-93932030D01*
X125027850Y-93942520D01*
X125048893Y-93955132D01*
X125068599Y-93969747D01*
X125086777Y-93986223D01*
X125103253Y-94004401D01*
X125117868Y-94024107D01*
X125130480Y-94045150D01*
X125140970Y-94067329D01*
X125149235Y-94090428D01*
X125155196Y-94114227D01*
X125158796Y-94138495D01*
X125160000Y-94162999D01*
X125160000Y-94813001D01*
X125158796Y-94837505D01*
X125155196Y-94861773D01*
X125149235Y-94885572D01*
X125140970Y-94908671D01*
X125130480Y-94930850D01*
X125117868Y-94951893D01*
X125103253Y-94971599D01*
X125086777Y-94989777D01*
X125068599Y-95006253D01*
X125048893Y-95020868D01*
X125027850Y-95033480D01*
X125005671Y-95043970D01*
X124982572Y-95052235D01*
X124958773Y-95058196D01*
X124934505Y-95061796D01*
X124910001Y-95063000D01*
X124009999Y-95063000D01*
X123985495Y-95061796D01*
X123961227Y-95058196D01*
X123937428Y-95052235D01*
X123914329Y-95043970D01*
X123892150Y-95033480D01*
X123871107Y-95020868D01*
X123851401Y-95006253D01*
X123833223Y-94989777D01*
X123816747Y-94971599D01*
X123802132Y-94951893D01*
X123789520Y-94930850D01*
X123779030Y-94908671D01*
X123770765Y-94885572D01*
X123764804Y-94861773D01*
X123761204Y-94837505D01*
X123760000Y-94813001D01*
X123760000Y-94162999D01*
X123761204Y-94138495D01*
X123764804Y-94114227D01*
X123770765Y-94090428D01*
X123779030Y-94067329D01*
X123789520Y-94045150D01*
X123802132Y-94024107D01*
X123816747Y-94004401D01*
X123833223Y-93986223D01*
X123851401Y-93969747D01*
X123871107Y-93955132D01*
X123892150Y-93942520D01*
X123914329Y-93932030D01*
X123937428Y-93923765D01*
X123961227Y-93917804D01*
X123985495Y-93914204D01*
X124009999Y-93913000D01*
X124910001Y-93913000D01*
X124934505Y-93914204D01*
X124934505Y-93914204D01*
G37*
D14*
G04 #@! TD*
G04 #@! TO.P,C5,1*
G04 #@! TO.N,+12V*
X124460000Y-94488000D03*
D13*
G04 #@! TO.N,GND*
G04 #@! TO.C,C5*
G36*
X124934505Y-91864204D02*
X124958773Y-91867804D01*
X124982572Y-91873765D01*
X125005671Y-91882030D01*
X125027850Y-91892520D01*
X125048893Y-91905132D01*
X125068599Y-91919747D01*
X125086777Y-91936223D01*
X125103253Y-91954401D01*
X125117868Y-91974107D01*
X125130480Y-91995150D01*
X125140970Y-92017329D01*
X125149235Y-92040428D01*
X125155196Y-92064227D01*
X125158796Y-92088495D01*
X125160000Y-92112999D01*
X125160000Y-92763001D01*
X125158796Y-92787505D01*
X125155196Y-92811773D01*
X125149235Y-92835572D01*
X125140970Y-92858671D01*
X125130480Y-92880850D01*
X125117868Y-92901893D01*
X125103253Y-92921599D01*
X125086777Y-92939777D01*
X125068599Y-92956253D01*
X125048893Y-92970868D01*
X125027850Y-92983480D01*
X125005671Y-92993970D01*
X124982572Y-93002235D01*
X124958773Y-93008196D01*
X124934505Y-93011796D01*
X124910001Y-93013000D01*
X124009999Y-93013000D01*
X123985495Y-93011796D01*
X123961227Y-93008196D01*
X123937428Y-93002235D01*
X123914329Y-92993970D01*
X123892150Y-92983480D01*
X123871107Y-92970868D01*
X123851401Y-92956253D01*
X123833223Y-92939777D01*
X123816747Y-92921599D01*
X123802132Y-92901893D01*
X123789520Y-92880850D01*
X123779030Y-92858671D01*
X123770765Y-92835572D01*
X123764804Y-92811773D01*
X123761204Y-92787505D01*
X123760000Y-92763001D01*
X123760000Y-92112999D01*
X123761204Y-92088495D01*
X123764804Y-92064227D01*
X123770765Y-92040428D01*
X123779030Y-92017329D01*
X123789520Y-91995150D01*
X123802132Y-91974107D01*
X123816747Y-91954401D01*
X123833223Y-91936223D01*
X123851401Y-91919747D01*
X123871107Y-91905132D01*
X123892150Y-91892520D01*
X123914329Y-91882030D01*
X123937428Y-91873765D01*
X123961227Y-91867804D01*
X123985495Y-91864204D01*
X124009999Y-91863000D01*
X124910001Y-91863000D01*
X124934505Y-91864204D01*
X124934505Y-91864204D01*
G37*
D14*
G04 #@! TD*
G04 #@! TO.P,C5,2*
G04 #@! TO.N,GND*
X124460000Y-92438000D03*
D13*
G04 #@! TO.N,GND*
G04 #@! TO.C,C6*
G36*
X133062505Y-91882204D02*
X133086773Y-91885804D01*
X133110572Y-91891765D01*
X133133671Y-91900030D01*
X133155850Y-91910520D01*
X133176893Y-91923132D01*
X133196599Y-91937747D01*
X133214777Y-91954223D01*
X133231253Y-91972401D01*
X133245868Y-91992107D01*
X133258480Y-92013150D01*
X133268970Y-92035329D01*
X133277235Y-92058428D01*
X133283196Y-92082227D01*
X133286796Y-92106495D01*
X133288000Y-92130999D01*
X133288000Y-92781001D01*
X133286796Y-92805505D01*
X133283196Y-92829773D01*
X133277235Y-92853572D01*
X133268970Y-92876671D01*
X133258480Y-92898850D01*
X133245868Y-92919893D01*
X133231253Y-92939599D01*
X133214777Y-92957777D01*
X133196599Y-92974253D01*
X133176893Y-92988868D01*
X133155850Y-93001480D01*
X133133671Y-93011970D01*
X133110572Y-93020235D01*
X133086773Y-93026196D01*
X133062505Y-93029796D01*
X133038001Y-93031000D01*
X132137999Y-93031000D01*
X132113495Y-93029796D01*
X132089227Y-93026196D01*
X132065428Y-93020235D01*
X132042329Y-93011970D01*
X132020150Y-93001480D01*
X131999107Y-92988868D01*
X131979401Y-92974253D01*
X131961223Y-92957777D01*
X131944747Y-92939599D01*
X131930132Y-92919893D01*
X131917520Y-92898850D01*
X131907030Y-92876671D01*
X131898765Y-92853572D01*
X131892804Y-92829773D01*
X131889204Y-92805505D01*
X131888000Y-92781001D01*
X131888000Y-92130999D01*
X131889204Y-92106495D01*
X131892804Y-92082227D01*
X131898765Y-92058428D01*
X131907030Y-92035329D01*
X131917520Y-92013150D01*
X131930132Y-91992107D01*
X131944747Y-91972401D01*
X131961223Y-91954223D01*
X131979401Y-91937747D01*
X131999107Y-91923132D01*
X132020150Y-91910520D01*
X132042329Y-91900030D01*
X132065428Y-91891765D01*
X132089227Y-91885804D01*
X132113495Y-91882204D01*
X132137999Y-91881000D01*
X133038001Y-91881000D01*
X133062505Y-91882204D01*
X133062505Y-91882204D01*
G37*
D14*
G04 #@! TD*
G04 #@! TO.P,C6,2*
G04 #@! TO.N,GND*
X132588000Y-92456000D03*
D13*
G04 #@! TO.N,+3V3*
G04 #@! TO.C,C6*
G36*
X133062505Y-93932204D02*
X133086773Y-93935804D01*
X133110572Y-93941765D01*
X133133671Y-93950030D01*
X133155850Y-93960520D01*
X133176893Y-93973132D01*
X133196599Y-93987747D01*
X133214777Y-94004223D01*
X133231253Y-94022401D01*
X133245868Y-94042107D01*
X133258480Y-94063150D01*
X133268970Y-94085329D01*
X133277235Y-94108428D01*
X133283196Y-94132227D01*
X133286796Y-94156495D01*
X133288000Y-94180999D01*
X133288000Y-94831001D01*
X133286796Y-94855505D01*
X133283196Y-94879773D01*
X133277235Y-94903572D01*
X133268970Y-94926671D01*
X133258480Y-94948850D01*
X133245868Y-94969893D01*
X133231253Y-94989599D01*
X133214777Y-95007777D01*
X133196599Y-95024253D01*
X133176893Y-95038868D01*
X133155850Y-95051480D01*
X133133671Y-95061970D01*
X133110572Y-95070235D01*
X133086773Y-95076196D01*
X133062505Y-95079796D01*
X133038001Y-95081000D01*
X132137999Y-95081000D01*
X132113495Y-95079796D01*
X132089227Y-95076196D01*
X132065428Y-95070235D01*
X132042329Y-95061970D01*
X132020150Y-95051480D01*
X131999107Y-95038868D01*
X131979401Y-95024253D01*
X131961223Y-95007777D01*
X131944747Y-94989599D01*
X131930132Y-94969893D01*
X131917520Y-94948850D01*
X131907030Y-94926671D01*
X131898765Y-94903572D01*
X131892804Y-94879773D01*
X131889204Y-94855505D01*
X131888000Y-94831001D01*
X131888000Y-94180999D01*
X131889204Y-94156495D01*
X131892804Y-94132227D01*
X131898765Y-94108428D01*
X131907030Y-94085329D01*
X131917520Y-94063150D01*
X131930132Y-94042107D01*
X131944747Y-94022401D01*
X131961223Y-94004223D01*
X131979401Y-93987747D01*
X131999107Y-93973132D01*
X132020150Y-93960520D01*
X132042329Y-93950030D01*
X132065428Y-93941765D01*
X132089227Y-93935804D01*
X132113495Y-93932204D01*
X132137999Y-93931000D01*
X133038001Y-93931000D01*
X133062505Y-93932204D01*
X133062505Y-93932204D01*
G37*
D14*
G04 #@! TD*
G04 #@! TO.P,C6,1*
G04 #@! TO.N,+3V3*
X132588000Y-94506000D03*
D17*
G04 #@! TO.P,Q1,1*
G04 #@! TO.N,VGS*
X153670000Y-102870000D03*
G04 #@! TO.P,Q1,2*
G04 #@! TO.N,GND*
X153670000Y-100970000D03*
G04 #@! TO.P,Q1,3*
G04 #@! TO.N,Net-(D1-Pad2)*
X155670000Y-101920000D03*
G04 #@! TD*
D13*
G04 #@! TO.N,+12V*
G04 #@! TO.C,R1*
G36*
X156684505Y-93261204D02*
X156708773Y-93264804D01*
X156732572Y-93270765D01*
X156755671Y-93279030D01*
X156777850Y-93289520D01*
X156798893Y-93302132D01*
X156818599Y-93316747D01*
X156836777Y-93333223D01*
X156853253Y-93351401D01*
X156867868Y-93371107D01*
X156880480Y-93392150D01*
X156890970Y-93414329D01*
X156899235Y-93437428D01*
X156905196Y-93461227D01*
X156908796Y-93485495D01*
X156910000Y-93509999D01*
X156910000Y-94160001D01*
X156908796Y-94184505D01*
X156905196Y-94208773D01*
X156899235Y-94232572D01*
X156890970Y-94255671D01*
X156880480Y-94277850D01*
X156867868Y-94298893D01*
X156853253Y-94318599D01*
X156836777Y-94336777D01*
X156818599Y-94353253D01*
X156798893Y-94367868D01*
X156777850Y-94380480D01*
X156755671Y-94390970D01*
X156732572Y-94399235D01*
X156708773Y-94405196D01*
X156684505Y-94408796D01*
X156660001Y-94410000D01*
X155759999Y-94410000D01*
X155735495Y-94408796D01*
X155711227Y-94405196D01*
X155687428Y-94399235D01*
X155664329Y-94390970D01*
X155642150Y-94380480D01*
X155621107Y-94367868D01*
X155601401Y-94353253D01*
X155583223Y-94336777D01*
X155566747Y-94318599D01*
X155552132Y-94298893D01*
X155539520Y-94277850D01*
X155529030Y-94255671D01*
X155520765Y-94232572D01*
X155514804Y-94208773D01*
X155511204Y-94184505D01*
X155510000Y-94160001D01*
X155510000Y-93509999D01*
X155511204Y-93485495D01*
X155514804Y-93461227D01*
X155520765Y-93437428D01*
X155529030Y-93414329D01*
X155539520Y-93392150D01*
X155552132Y-93371107D01*
X155566747Y-93351401D01*
X155583223Y-93333223D01*
X155601401Y-93316747D01*
X155621107Y-93302132D01*
X155642150Y-93289520D01*
X155664329Y-93279030D01*
X155687428Y-93270765D01*
X155711227Y-93264804D01*
X155735495Y-93261204D01*
X155759999Y-93260000D01*
X156660001Y-93260000D01*
X156684505Y-93261204D01*
X156684505Y-93261204D01*
G37*
D14*
G04 #@! TD*
G04 #@! TO.P,R1,1*
G04 #@! TO.N,+12V*
X156210000Y-93835000D03*
D13*
G04 #@! TO.N,Net-(D1-Pad1)*
G04 #@! TO.C,R1*
G36*
X156684505Y-95311204D02*
X156708773Y-95314804D01*
X156732572Y-95320765D01*
X156755671Y-95329030D01*
X156777850Y-95339520D01*
X156798893Y-95352132D01*
X156818599Y-95366747D01*
X156836777Y-95383223D01*
X156853253Y-95401401D01*
X156867868Y-95421107D01*
X156880480Y-95442150D01*
X156890970Y-95464329D01*
X156899235Y-95487428D01*
X156905196Y-95511227D01*
X156908796Y-95535495D01*
X156910000Y-95559999D01*
X156910000Y-96210001D01*
X156908796Y-96234505D01*
X156905196Y-96258773D01*
X156899235Y-96282572D01*
X156890970Y-96305671D01*
X156880480Y-96327850D01*
X156867868Y-96348893D01*
X156853253Y-96368599D01*
X156836777Y-96386777D01*
X156818599Y-96403253D01*
X156798893Y-96417868D01*
X156777850Y-96430480D01*
X156755671Y-96440970D01*
X156732572Y-96449235D01*
X156708773Y-96455196D01*
X156684505Y-96458796D01*
X156660001Y-96460000D01*
X155759999Y-96460000D01*
X155735495Y-96458796D01*
X155711227Y-96455196D01*
X155687428Y-96449235D01*
X155664329Y-96440970D01*
X155642150Y-96430480D01*
X155621107Y-96417868D01*
X155601401Y-96403253D01*
X155583223Y-96386777D01*
X155566747Y-96368599D01*
X155552132Y-96348893D01*
X155539520Y-96327850D01*
X155529030Y-96305671D01*
X155520765Y-96282572D01*
X155514804Y-96258773D01*
X155511204Y-96234505D01*
X155510000Y-96210001D01*
X155510000Y-95559999D01*
X155511204Y-95535495D01*
X155514804Y-95511227D01*
X155520765Y-95487428D01*
X155529030Y-95464329D01*
X155539520Y-95442150D01*
X155552132Y-95421107D01*
X155566747Y-95401401D01*
X155583223Y-95383223D01*
X155601401Y-95366747D01*
X155621107Y-95352132D01*
X155642150Y-95339520D01*
X155664329Y-95329030D01*
X155687428Y-95320765D01*
X155711227Y-95314804D01*
X155735495Y-95311204D01*
X155759999Y-95310000D01*
X156660001Y-95310000D01*
X156684505Y-95311204D01*
X156684505Y-95311204D01*
G37*
D14*
G04 #@! TD*
G04 #@! TO.P,R1,2*
G04 #@! TO.N,Net-(D1-Pad1)*
X156210000Y-95885000D03*
D12*
G04 #@! TO.P,SP1,1*
G04 #@! TO.N,Net-(D1-Pad1)*
X161850000Y-98000000D03*
G04 #@! TO.P,SP1,2*
G04 #@! TO.N,Net-(D1-Pad2)*
X168350000Y-98000000D03*
G04 #@! TD*
D18*
G04 #@! TO.P,TP1,1*
G04 #@! TO.N,+12V*
X120904000Y-98044000D03*
G04 #@! TD*
G04 #@! TO.P,TP2,1*
G04 #@! TO.N,+3V3*
X135255000Y-93980000D03*
G04 #@! TD*
D19*
G04 #@! TO.P,U3,1*
G04 #@! TO.N,GND*
X127320000Y-93250000D03*
G04 #@! TO.P,U3,2*
G04 #@! TO.N,+3V3*
X129220000Y-93250000D03*
G04 #@! TO.P,U3,3*
G04 #@! TO.N,+12V*
X128270000Y-95250000D03*
G04 #@! TD*
D20*
G04 #@! TO.P,U4,1*
G04 #@! TO.N,GND*
X139370000Y-96815000D03*
G04 #@! TO.P,U4,5*
G04 #@! TO.N,MISO*
X140970000Y-98765000D03*
G04 #@! TO.P,U4,6*
G04 #@! TO.N,+3V3*
X140970000Y-98115000D03*
G04 #@! TO.P,U4,7*
G04 #@! TO.N,GND*
X140970000Y-97465000D03*
G04 #@! TO.P,U4,4*
G04 #@! TO.N,SCLK*
X139370000Y-98765000D03*
G04 #@! TO.P,U4,3*
G04 #@! TO.N,MOSI*
X139370000Y-98115000D03*
G04 #@! TO.P,U4,2*
G04 #@! TO.N,Net-(J3-Pad2)*
X139370000Y-97465000D03*
G04 #@! TO.P,U4,8*
G04 #@! TO.N,+3V3*
X140970000Y-96815000D03*
G04 #@! TD*
D13*
G04 #@! TO.N,Net-(D1-Pad1)*
G04 #@! TO.C,D1*
G36*
X159478505Y-97960204D02*
X159502773Y-97963804D01*
X159526572Y-97969765D01*
X159549671Y-97978030D01*
X159571850Y-97988520D01*
X159592893Y-98001132D01*
X159612599Y-98015747D01*
X159630777Y-98032223D01*
X159647253Y-98050401D01*
X159661868Y-98070107D01*
X159674480Y-98091150D01*
X159684970Y-98113329D01*
X159693235Y-98136428D01*
X159699196Y-98160227D01*
X159702796Y-98184495D01*
X159704000Y-98208999D01*
X159704000Y-98859001D01*
X159702796Y-98883505D01*
X159699196Y-98907773D01*
X159693235Y-98931572D01*
X159684970Y-98954671D01*
X159674480Y-98976850D01*
X159661868Y-98997893D01*
X159647253Y-99017599D01*
X159630777Y-99035777D01*
X159612599Y-99052253D01*
X159592893Y-99066868D01*
X159571850Y-99079480D01*
X159549671Y-99089970D01*
X159526572Y-99098235D01*
X159502773Y-99104196D01*
X159478505Y-99107796D01*
X159454001Y-99109000D01*
X158553999Y-99109000D01*
X158529495Y-99107796D01*
X158505227Y-99104196D01*
X158481428Y-99098235D01*
X158458329Y-99089970D01*
X158436150Y-99079480D01*
X158415107Y-99066868D01*
X158395401Y-99052253D01*
X158377223Y-99035777D01*
X158360747Y-99017599D01*
X158346132Y-98997893D01*
X158333520Y-98976850D01*
X158323030Y-98954671D01*
X158314765Y-98931572D01*
X158308804Y-98907773D01*
X158305204Y-98883505D01*
X158304000Y-98859001D01*
X158304000Y-98208999D01*
X158305204Y-98184495D01*
X158308804Y-98160227D01*
X158314765Y-98136428D01*
X158323030Y-98113329D01*
X158333520Y-98091150D01*
X158346132Y-98070107D01*
X158360747Y-98050401D01*
X158377223Y-98032223D01*
X158395401Y-98015747D01*
X158415107Y-98001132D01*
X158436150Y-97988520D01*
X158458329Y-97978030D01*
X158481428Y-97969765D01*
X158505227Y-97963804D01*
X158529495Y-97960204D01*
X158553999Y-97959000D01*
X159454001Y-97959000D01*
X159478505Y-97960204D01*
X159478505Y-97960204D01*
G37*
D14*
G04 #@! TD*
G04 #@! TO.P,D1,1*
G04 #@! TO.N,Net-(D1-Pad1)*
X159004000Y-98534000D03*
D13*
G04 #@! TO.N,Net-(D1-Pad2)*
G04 #@! TO.C,D1*
G36*
X159478505Y-100010204D02*
X159502773Y-100013804D01*
X159526572Y-100019765D01*
X159549671Y-100028030D01*
X159571850Y-100038520D01*
X159592893Y-100051132D01*
X159612599Y-100065747D01*
X159630777Y-100082223D01*
X159647253Y-100100401D01*
X159661868Y-100120107D01*
X159674480Y-100141150D01*
X159684970Y-100163329D01*
X159693235Y-100186428D01*
X159699196Y-100210227D01*
X159702796Y-100234495D01*
X159704000Y-100258999D01*
X159704000Y-100909001D01*
X159702796Y-100933505D01*
X159699196Y-100957773D01*
X159693235Y-100981572D01*
X159684970Y-101004671D01*
X159674480Y-101026850D01*
X159661868Y-101047893D01*
X159647253Y-101067599D01*
X159630777Y-101085777D01*
X159612599Y-101102253D01*
X159592893Y-101116868D01*
X159571850Y-101129480D01*
X159549671Y-101139970D01*
X159526572Y-101148235D01*
X159502773Y-101154196D01*
X159478505Y-101157796D01*
X159454001Y-101159000D01*
X158553999Y-101159000D01*
X158529495Y-101157796D01*
X158505227Y-101154196D01*
X158481428Y-101148235D01*
X158458329Y-101139970D01*
X158436150Y-101129480D01*
X158415107Y-101116868D01*
X158395401Y-101102253D01*
X158377223Y-101085777D01*
X158360747Y-101067599D01*
X158346132Y-101047893D01*
X158333520Y-101026850D01*
X158323030Y-101004671D01*
X158314765Y-100981572D01*
X158308804Y-100957773D01*
X158305204Y-100933505D01*
X158304000Y-100909001D01*
X158304000Y-100258999D01*
X158305204Y-100234495D01*
X158308804Y-100210227D01*
X158314765Y-100186428D01*
X158323030Y-100163329D01*
X158333520Y-100141150D01*
X158346132Y-100120107D01*
X158360747Y-100100401D01*
X158377223Y-100082223D01*
X158395401Y-100065747D01*
X158415107Y-100051132D01*
X158436150Y-100038520D01*
X158458329Y-100028030D01*
X158481428Y-100019765D01*
X158505227Y-100013804D01*
X158529495Y-100010204D01*
X158553999Y-100009000D01*
X159454001Y-100009000D01*
X159478505Y-100010204D01*
X159478505Y-100010204D01*
G37*
D14*
G04 #@! TD*
G04 #@! TO.P,D1,2*
G04 #@! TO.N,Net-(D1-Pad2)*
X159004000Y-100584000D03*
D21*
G04 #@! TO.P,J2,1*
G04 #@! TO.N,+3V3*
X149860000Y-95250000D03*
D22*
G04 #@! TO.P,J2,2*
G04 #@! TO.N,MOSI*
X147320000Y-95250000D03*
G04 #@! TO.P,J2,3*
G04 #@! TO.N,MISO*
X149860000Y-97790000D03*
G04 #@! TO.P,J2,4*
G04 #@! TO.N,SCLK*
X147320000Y-97790000D03*
G04 #@! TO.P,J2,5*
G04 #@! TO.N,RESET*
X149860000Y-100330000D03*
G04 #@! TO.P,J2,6*
G04 #@! TO.N,GND*
X147320000Y-100330000D03*
G04 #@! TD*
D23*
G04 #@! TO.P,H1,1*
G04 #@! TO.N,GND*
X108204000Y-98044000D03*
G04 #@! TD*
D11*
G04 #@! TO.P,J1,1*
G04 #@! TO.N,+12V*
X114300000Y-93500000D03*
D10*
G04 #@! TO.P,J1,2*
G04 #@! TO.N,Net-(J1-Pad2)*
X115570000Y-93500000D03*
G04 #@! TD*
D24*
G04 #@! TO.N,+3V3*
X137160000Y-92800000D03*
X140716000Y-102616000D03*
G04 #@! TO.N,+12V*
X130810000Y-94488000D03*
X122428000Y-93980000D03*
X156210000Y-92075000D03*
G04 #@! TO.N,MOSI*
X132080000Y-97790000D03*
G04 #@! TO.N,MISO*
X141732000Y-100076000D03*
G04 #@! TO.N,SCLK*
X132080000Y-100330000D03*
X137160000Y-99060000D03*
G04 #@! TO.N,VGS*
X129540000Y-101600000D03*
X152400000Y-104140000D03*
G04 #@! TO.N,RESET*
X128524000Y-103124000D03*
G04 #@! TD*
D25*
G04 #@! TO.N,+3V3*
X134620000Y-101600000D02*
X137160000Y-101600000D01*
X136435000Y-92800000D02*
X135255000Y-93980000D01*
X137160000Y-92800000D02*
X136435000Y-92800000D01*
X140470000Y-96815000D02*
X140208000Y-97077000D01*
X140970000Y-96815000D02*
X140470000Y-96815000D01*
X140470000Y-98115000D02*
X140970000Y-98115000D01*
X140208000Y-97853000D02*
X140470000Y-98115000D01*
X140208000Y-97077000D02*
X140208000Y-97853000D01*
X140706990Y-102625010D02*
X140716000Y-102616000D01*
X137160000Y-101600000D02*
X138185010Y-102625010D01*
X138185010Y-102625010D02*
X140706990Y-102625010D01*
X141224000Y-94996000D02*
X139356000Y-94996000D01*
X139356000Y-94996000D02*
X138340000Y-93980000D01*
X138340000Y-93980000D02*
X137160000Y-92800000D01*
X140970000Y-95250000D02*
X141224000Y-94996000D01*
X140970000Y-96815000D02*
X140970000Y-95250000D01*
X131332000Y-93250000D02*
X132588000Y-94506000D01*
X129220000Y-93250000D02*
X131332000Y-93250000D01*
X134729000Y-94506000D02*
X135255000Y-93980000D01*
X132588000Y-94506000D02*
X134729000Y-94506000D01*
G04 #@! TO.N,GND*
X140970000Y-97465000D02*
X141661000Y-97465000D01*
G04 #@! TO.N,+12V*
X121920000Y-95250000D02*
X122428000Y-95250000D01*
X120904000Y-96266000D02*
X121920000Y-95250000D01*
X120904000Y-98044000D02*
X120904000Y-96266000D01*
X122428000Y-95250000D02*
X122428000Y-93980000D01*
X156210000Y-92075000D02*
X156210000Y-93835000D01*
X125222000Y-95250000D02*
X124460000Y-94488000D01*
X128270000Y-95250000D02*
X125222000Y-95250000D01*
X130048000Y-95250000D02*
X130810000Y-94488000D01*
X128270000Y-95250000D02*
X130048000Y-95250000D01*
X122428000Y-93980000D02*
X122936000Y-94488000D01*
X122936000Y-94488000D02*
X124460000Y-94488000D01*
G04 #@! TO.N,MOSI*
X134620000Y-97790000D02*
X132080000Y-97790000D01*
X135720000Y-97790000D02*
X134620000Y-97790000D01*
X136045000Y-98115000D02*
X135720000Y-97790000D01*
X139370000Y-98115000D02*
X136045000Y-98115000D01*
G04 #@! TO.N,MISO*
X140970000Y-98765000D02*
X140895000Y-98765000D01*
X140970000Y-98765000D02*
X140970000Y-100330000D01*
X135720000Y-99060000D02*
X134620000Y-99060000D01*
X136990000Y-100330000D02*
X135720000Y-99060000D01*
X140970000Y-100330000D02*
X136990000Y-100330000D01*
X140970000Y-100330000D02*
X141478000Y-100330000D01*
X141478000Y-100330000D02*
X141732000Y-100076000D01*
G04 #@! TO.N,SCLK*
X134620000Y-100330000D02*
X134095000Y-100330000D01*
X134620000Y-100330000D02*
X132080000Y-100330000D01*
X137455000Y-98765000D02*
X137160000Y-99060000D01*
X139370000Y-98765000D02*
X137455000Y-98765000D01*
G04 #@! TO.N,VGS*
X129115000Y-101600000D02*
X129540000Y-101600000D01*
X127320000Y-100330000D02*
X127845000Y-100330000D01*
X127845000Y-100330000D02*
X129115000Y-101600000D01*
X152400000Y-104140000D02*
X153670000Y-102870000D01*
G04 #@! TO.N,Net-(D1-Pad2)*
X164430000Y-101920000D02*
X168350000Y-98000000D01*
X159004000Y-100584000D02*
X159004000Y-101920000D01*
X155670000Y-101920000D02*
X159004000Y-101920000D01*
X159004000Y-101920000D02*
X164430000Y-101920000D01*
G04 #@! TO.N,Net-(D1-Pad1)*
X159735000Y-95885000D02*
X161850000Y-98000000D01*
X156210000Y-95885000D02*
X159735000Y-95885000D01*
X161316000Y-98534000D02*
X161850000Y-98000000D01*
X159004000Y-98534000D02*
X161316000Y-98534000D01*
G04 #@! TO.N,RESET*
X127320000Y-101920000D02*
X128524000Y-103124000D01*
X127320000Y-101600000D02*
X127320000Y-101920000D01*
G04 #@! TO.N,Net-(J3-Pad1)*
X126220000Y-99060000D02*
X122918000Y-102362000D01*
X127320000Y-99060000D02*
X126220000Y-99060000D01*
X120396000Y-102362000D02*
X122918000Y-102362000D01*
G04 #@! TO.N,Net-(J3-Pad2)*
X139370000Y-97465000D02*
X138613000Y-97465000D01*
X138613000Y-97465000D02*
X137668000Y-96520000D01*
X137668000Y-96520000D02*
X131572000Y-96520000D01*
X131572000Y-96520000D02*
X130556000Y-97536000D01*
X130556000Y-102165002D02*
X128589003Y-104131999D01*
X130556000Y-97536000D02*
X130556000Y-102165002D01*
X120895999Y-104131999D02*
X128589003Y-104131999D01*
X120396000Y-103632000D02*
X120895999Y-104131999D01*
G04 #@! TD*
D26*
G04 #@! TO.N,GND*
G36*
X123125000Y-91736691D02*
X123125000Y-92152250D01*
X123283750Y-92311000D01*
X124333000Y-92311000D01*
X124333000Y-92291000D01*
X124587000Y-92291000D01*
X124587000Y-92311000D01*
X125636250Y-92311000D01*
X125795000Y-92152250D01*
X125795000Y-91736691D01*
X125755778Y-91642000D01*
X131299678Y-91642000D01*
X131253000Y-91754691D01*
X131253000Y-92170250D01*
X131411750Y-92329000D01*
X132461000Y-92329000D01*
X132461000Y-92309000D01*
X132715000Y-92309000D01*
X132715000Y-92329000D01*
X133764250Y-92329000D01*
X133923000Y-92170250D01*
X133923000Y-91754691D01*
X133876322Y-91642000D01*
X155269078Y-91642000D01*
X155175000Y-91869126D01*
X155175000Y-92280874D01*
X155332569Y-92661280D01*
X155377958Y-92706669D01*
X155125414Y-92875414D01*
X154930873Y-93166564D01*
X154862560Y-93509999D01*
X154862560Y-94160001D01*
X154930873Y-94503436D01*
X155125414Y-94794586D01*
X155223313Y-94860000D01*
X155125414Y-94925414D01*
X154930873Y-95216564D01*
X154862560Y-95559999D01*
X154862560Y-96210001D01*
X154930873Y-96553436D01*
X155029325Y-96700779D01*
X154843857Y-96777603D01*
X154774392Y-97019787D01*
X155575000Y-97820395D01*
X155589143Y-97806253D01*
X155768748Y-97985858D01*
X155754605Y-98000000D01*
X156555213Y-98800608D01*
X156797397Y-98731143D01*
X156984144Y-98207698D01*
X156956362Y-97652632D01*
X156797397Y-97268857D01*
X156555215Y-97199393D01*
X156647168Y-97107440D01*
X156660001Y-97107440D01*
X157003436Y-97039127D01*
X157294586Y-96844586D01*
X157353000Y-96757164D01*
X157353000Y-101160000D01*
X156643163Y-101160000D01*
X156577809Y-101062191D01*
X156367765Y-100921843D01*
X156120000Y-100872560D01*
X155220000Y-100872560D01*
X154972235Y-100921843D01*
X154762191Y-101062191D01*
X154681781Y-101182531D01*
X154596250Y-101097000D01*
X153797000Y-101097000D01*
X153797000Y-101117000D01*
X153543000Y-101117000D01*
X153543000Y-101097000D01*
X152743750Y-101097000D01*
X152585000Y-101255750D01*
X152585000Y-101496310D01*
X152681673Y-101729699D01*
X152860302Y-101908327D01*
X152895694Y-101922987D01*
X152762191Y-102012191D01*
X152621843Y-102222235D01*
X152572560Y-102470000D01*
X152572560Y-102892638D01*
X152360199Y-103105000D01*
X152194126Y-103105000D01*
X151813720Y-103262569D01*
X151522569Y-103553720D01*
X151365000Y-103934126D01*
X151365000Y-104345874D01*
X151406473Y-104446000D01*
X129349803Y-104446000D01*
X131040473Y-102755331D01*
X131103929Y-102712931D01*
X131200926Y-102567765D01*
X131271904Y-102461540D01*
X131283255Y-102404472D01*
X131316000Y-102239854D01*
X131316000Y-102239850D01*
X131330888Y-102165002D01*
X131316000Y-102090154D01*
X131316000Y-101029711D01*
X131493720Y-101207431D01*
X131874126Y-101365000D01*
X132285874Y-101365000D01*
X132666280Y-101207431D01*
X132783711Y-101090000D01*
X133159358Y-101090000D01*
X133122560Y-101275000D01*
X133122560Y-101925000D01*
X133171843Y-102172765D01*
X133312191Y-102382809D01*
X133522235Y-102523157D01*
X133770000Y-102572440D01*
X135470000Y-102572440D01*
X135717765Y-102523157D01*
X135927809Y-102382809D01*
X135943050Y-102360000D01*
X135999222Y-102360000D01*
X136005873Y-102393436D01*
X136200414Y-102684586D01*
X136491564Y-102879127D01*
X136834999Y-102947440D01*
X137432638Y-102947440D01*
X137594681Y-103109483D01*
X137637081Y-103172939D01*
X137888473Y-103340914D01*
X138110158Y-103385010D01*
X138110162Y-103385010D01*
X138185009Y-103399898D01*
X138259856Y-103385010D01*
X140021299Y-103385010D01*
X140129720Y-103493431D01*
X140510126Y-103651000D01*
X140921874Y-103651000D01*
X141302280Y-103493431D01*
X141593431Y-103202280D01*
X141751000Y-102821874D01*
X141751000Y-102410126D01*
X141593431Y-102029720D01*
X141302280Y-101738569D01*
X140921874Y-101581000D01*
X140510126Y-101581000D01*
X140157650Y-101727000D01*
X139337000Y-101727000D01*
X139337000Y-101747000D01*
X139083000Y-101747000D01*
X139083000Y-101727000D01*
X139063000Y-101727000D01*
X139063000Y-101473000D01*
X139083000Y-101473000D01*
X139083000Y-101453000D01*
X139337000Y-101453000D01*
X139337000Y-101473000D01*
X140261250Y-101473000D01*
X140420000Y-101314250D01*
X140420000Y-101090000D01*
X140895148Y-101090000D01*
X140970000Y-101104889D01*
X141044852Y-101090000D01*
X141403153Y-101090000D01*
X141478000Y-101104888D01*
X141500544Y-101100404D01*
X141526126Y-101111000D01*
X141937874Y-101111000D01*
X142318280Y-100953431D01*
X142584821Y-100686890D01*
X145878524Y-100686890D01*
X146048355Y-101096924D01*
X146438642Y-101525183D01*
X146963108Y-101771486D01*
X147193000Y-101650819D01*
X147193000Y-100457000D01*
X145999845Y-100457000D01*
X145878524Y-100686890D01*
X142584821Y-100686890D01*
X142609431Y-100662280D01*
X142767000Y-100281874D01*
X142767000Y-99870126D01*
X142609431Y-99489720D01*
X142318280Y-99198569D01*
X141937874Y-99041000D01*
X141847350Y-99041000D01*
X141867440Y-98940000D01*
X141867440Y-98590000D01*
X141837603Y-98440000D01*
X141867440Y-98290000D01*
X141867440Y-97940000D01*
X141840064Y-97802369D01*
X141855000Y-97766310D01*
X141855000Y-97711250D01*
X141782256Y-97638506D01*
X141677809Y-97482191D01*
X141652081Y-97465000D01*
X141677809Y-97447809D01*
X141782256Y-97291494D01*
X141855000Y-97218750D01*
X141855000Y-97163690D01*
X141840064Y-97127631D01*
X141867440Y-96990000D01*
X141867440Y-96640000D01*
X141818157Y-96392235D01*
X141757801Y-96301907D01*
X141892436Y-96275127D01*
X142183586Y-96080586D01*
X142184377Y-96079403D01*
X142339302Y-96234327D01*
X142572691Y-96331000D01*
X142988250Y-96331000D01*
X143147000Y-96172250D01*
X143147000Y-95123000D01*
X143401000Y-95123000D01*
X143401000Y-96172250D01*
X143559750Y-96331000D01*
X143975309Y-96331000D01*
X144208698Y-96234327D01*
X144387327Y-96055699D01*
X144484000Y-95822310D01*
X144484000Y-95281750D01*
X144452250Y-95250000D01*
X145805908Y-95250000D01*
X145921161Y-95829418D01*
X146249375Y-96320625D01*
X146547761Y-96520000D01*
X146249375Y-96719375D01*
X145921161Y-97210582D01*
X145805908Y-97790000D01*
X145921161Y-98369418D01*
X146249375Y-98860625D01*
X146568478Y-99073843D01*
X146438642Y-99134817D01*
X146048355Y-99563076D01*
X145878524Y-99973110D01*
X145999845Y-100203000D01*
X147193000Y-100203000D01*
X147193000Y-100183000D01*
X147447000Y-100183000D01*
X147447000Y-100203000D01*
X147467000Y-100203000D01*
X147467000Y-100457000D01*
X147447000Y-100457000D01*
X147447000Y-101650819D01*
X147676892Y-101771486D01*
X148201358Y-101525183D01*
X148588647Y-101100214D01*
X148789375Y-101400625D01*
X149280582Y-101728839D01*
X149713744Y-101815000D01*
X150006256Y-101815000D01*
X150439418Y-101728839D01*
X150930625Y-101400625D01*
X151258839Y-100909418D01*
X151351477Y-100443690D01*
X152585000Y-100443690D01*
X152585000Y-100684250D01*
X152743750Y-100843000D01*
X153543000Y-100843000D01*
X153543000Y-100093750D01*
X153797000Y-100093750D01*
X153797000Y-100843000D01*
X154596250Y-100843000D01*
X154755000Y-100684250D01*
X154755000Y-100443690D01*
X154658327Y-100210301D01*
X154479698Y-100031673D01*
X154246309Y-99935000D01*
X153955750Y-99935000D01*
X153797000Y-100093750D01*
X153543000Y-100093750D01*
X153384250Y-99935000D01*
X153093691Y-99935000D01*
X152860302Y-100031673D01*
X152681673Y-100210301D01*
X152585000Y-100443690D01*
X151351477Y-100443690D01*
X151374092Y-100330000D01*
X151258839Y-99750582D01*
X150930625Y-99259375D01*
X150632239Y-99060000D01*
X150751648Y-98980213D01*
X154774392Y-98980213D01*
X154843857Y-99222397D01*
X155367302Y-99409144D01*
X155922368Y-99381362D01*
X156306143Y-99222397D01*
X156375608Y-98980213D01*
X155575000Y-98179605D01*
X154774392Y-98980213D01*
X150751648Y-98980213D01*
X150930625Y-98860625D01*
X151258839Y-98369418D01*
X151373634Y-97792302D01*
X154165856Y-97792302D01*
X154193638Y-98347368D01*
X154352603Y-98731143D01*
X154594787Y-98800608D01*
X155395395Y-98000000D01*
X154594787Y-97199392D01*
X154352603Y-97268857D01*
X154165856Y-97792302D01*
X151373634Y-97792302D01*
X151374092Y-97790000D01*
X151258839Y-97210582D01*
X150930625Y-96719375D01*
X150912381Y-96707184D01*
X150957765Y-96698157D01*
X151167809Y-96557809D01*
X151308157Y-96347765D01*
X151357440Y-96100000D01*
X151357440Y-94400000D01*
X151308157Y-94152235D01*
X151167809Y-93942191D01*
X150957765Y-93801843D01*
X150710000Y-93752560D01*
X149010000Y-93752560D01*
X148762235Y-93801843D01*
X148552191Y-93942191D01*
X148411843Y-94152235D01*
X148402816Y-94197619D01*
X148390625Y-94179375D01*
X147899418Y-93851161D01*
X147466256Y-93765000D01*
X147173744Y-93765000D01*
X146740582Y-93851161D01*
X146249375Y-94179375D01*
X145921161Y-94670582D01*
X145805908Y-95250000D01*
X144452250Y-95250000D01*
X144325250Y-95123000D01*
X143401000Y-95123000D01*
X143147000Y-95123000D01*
X143127000Y-95123000D01*
X143127000Y-94869000D01*
X143147000Y-94869000D01*
X143147000Y-93819750D01*
X143401000Y-93819750D01*
X143401000Y-94869000D01*
X144325250Y-94869000D01*
X144484000Y-94710250D01*
X144484000Y-94169690D01*
X144387327Y-93936301D01*
X144208698Y-93757673D01*
X143975309Y-93661000D01*
X143559750Y-93661000D01*
X143401000Y-93819750D01*
X143147000Y-93819750D01*
X142988250Y-93661000D01*
X142572691Y-93661000D01*
X142339302Y-93757673D01*
X142184377Y-93912597D01*
X142183586Y-93911414D01*
X141892436Y-93716873D01*
X141549001Y-93648560D01*
X140898999Y-93648560D01*
X140555564Y-93716873D01*
X140264414Y-93911414D01*
X140069873Y-94202564D01*
X140063222Y-94236000D01*
X139670802Y-94236000D01*
X138930331Y-93495530D01*
X138930329Y-93495527D01*
X138195000Y-92760199D01*
X138195000Y-92594126D01*
X138037431Y-92213720D01*
X137746280Y-91922569D01*
X137365874Y-91765000D01*
X136954126Y-91765000D01*
X136573720Y-91922569D01*
X136465175Y-92031114D01*
X136434999Y-92025112D01*
X136360152Y-92040000D01*
X136360148Y-92040000D01*
X136138463Y-92084096D01*
X135887071Y-92252071D01*
X135844671Y-92315527D01*
X135555034Y-92605165D01*
X135530494Y-92595000D01*
X134979506Y-92595000D01*
X134470460Y-92805853D01*
X134080853Y-93195460D01*
X133870000Y-93704506D01*
X133870000Y-93746000D01*
X133805946Y-93746000D01*
X133672586Y-93546414D01*
X133671403Y-93545623D01*
X133826327Y-93390698D01*
X133923000Y-93157309D01*
X133923000Y-92741750D01*
X133764250Y-92583000D01*
X132715000Y-92583000D01*
X132715000Y-92603000D01*
X132461000Y-92603000D01*
X132461000Y-92583000D01*
X131701727Y-92583000D01*
X131628537Y-92534096D01*
X131406852Y-92490000D01*
X131406847Y-92490000D01*
X131332000Y-92475112D01*
X131257153Y-92490000D01*
X130176573Y-92490000D01*
X130077809Y-92342191D01*
X129867765Y-92201843D01*
X129620000Y-92152560D01*
X128820000Y-92152560D01*
X128572235Y-92201843D01*
X128362191Y-92342191D01*
X128272987Y-92475694D01*
X128258327Y-92440302D01*
X128079699Y-92261673D01*
X127846310Y-92165000D01*
X127605750Y-92165000D01*
X127447000Y-92323750D01*
X127447000Y-93123000D01*
X127467000Y-93123000D01*
X127467000Y-93377000D01*
X127447000Y-93377000D01*
X127447000Y-94176250D01*
X127532531Y-94261781D01*
X127412191Y-94342191D01*
X127313427Y-94490000D01*
X125807440Y-94490000D01*
X125807440Y-94162999D01*
X125739127Y-93819564D01*
X125549488Y-93535750D01*
X126285000Y-93535750D01*
X126285000Y-93826309D01*
X126381673Y-94059698D01*
X126560301Y-94238327D01*
X126793690Y-94335000D01*
X127034250Y-94335000D01*
X127193000Y-94176250D01*
X127193000Y-93377000D01*
X126443750Y-93377000D01*
X126285000Y-93535750D01*
X125549488Y-93535750D01*
X125544586Y-93528414D01*
X125543403Y-93527623D01*
X125698327Y-93372698D01*
X125795000Y-93139309D01*
X125795000Y-92723750D01*
X125744941Y-92673691D01*
X126285000Y-92673691D01*
X126285000Y-92964250D01*
X126443750Y-93123000D01*
X127193000Y-93123000D01*
X127193000Y-92323750D01*
X127034250Y-92165000D01*
X126793690Y-92165000D01*
X126560301Y-92261673D01*
X126381673Y-92440302D01*
X126285000Y-92673691D01*
X125744941Y-92673691D01*
X125636250Y-92565000D01*
X124587000Y-92565000D01*
X124587000Y-92585000D01*
X124333000Y-92585000D01*
X124333000Y-92565000D01*
X123283750Y-92565000D01*
X123125000Y-92723750D01*
X123125000Y-93139309D01*
X123177312Y-93265601D01*
X123014280Y-93102569D01*
X122633874Y-92945000D01*
X122222126Y-92945000D01*
X121841720Y-93102569D01*
X121550569Y-93393720D01*
X121393000Y-93774126D01*
X121393000Y-94185874D01*
X121550569Y-94566280D01*
X121560473Y-94576184D01*
X121372071Y-94702071D01*
X121329671Y-94765527D01*
X120419528Y-95675671D01*
X120356072Y-95718071D01*
X120313672Y-95781527D01*
X120313671Y-95781528D01*
X120244533Y-95885000D01*
X120188097Y-95969463D01*
X120160745Y-96106973D01*
X120129112Y-96266000D01*
X120144001Y-96340852D01*
X120144001Y-96859688D01*
X120119460Y-96869853D01*
X119729853Y-97259460D01*
X119519000Y-97768506D01*
X119519000Y-98319494D01*
X119729853Y-98828540D01*
X120119460Y-99218147D01*
X120628506Y-99429000D01*
X121179494Y-99429000D01*
X121688540Y-99218147D01*
X122078147Y-98828540D01*
X122289000Y-98319494D01*
X122289000Y-97768506D01*
X122269786Y-97722119D01*
X122428000Y-97722119D01*
X122428000Y-98277881D01*
X122640680Y-98791337D01*
X123033663Y-99184320D01*
X123547119Y-99397000D01*
X124102881Y-99397000D01*
X124616337Y-99184320D01*
X125009320Y-98791337D01*
X125222000Y-98277881D01*
X125222000Y-97722119D01*
X125063179Y-97338690D01*
X125835000Y-97338690D01*
X125835000Y-97504250D01*
X125993750Y-97663000D01*
X127193000Y-97663000D01*
X127193000Y-96988750D01*
X127447000Y-96988750D01*
X127447000Y-97663000D01*
X128646250Y-97663000D01*
X128805000Y-97504250D01*
X128805000Y-97338690D01*
X128708327Y-97105301D01*
X128529698Y-96926673D01*
X128296309Y-96830000D01*
X127605750Y-96830000D01*
X127447000Y-96988750D01*
X127193000Y-96988750D01*
X127034250Y-96830000D01*
X126343691Y-96830000D01*
X126110302Y-96926673D01*
X125931673Y-97105301D01*
X125835000Y-97338690D01*
X125063179Y-97338690D01*
X125009320Y-97208663D01*
X124616337Y-96815680D01*
X124102881Y-96603000D01*
X123547119Y-96603000D01*
X123033663Y-96815680D01*
X122640680Y-97208663D01*
X122428000Y-97722119D01*
X122269786Y-97722119D01*
X122078147Y-97259460D01*
X121688540Y-96869853D01*
X121664000Y-96859688D01*
X121664000Y-96580801D01*
X122234802Y-96010000D01*
X122353148Y-96010000D01*
X122428000Y-96024889D01*
X122502852Y-96010000D01*
X122724537Y-95965904D01*
X122975929Y-95797929D01*
X123143904Y-95546537D01*
X123202889Y-95250000D01*
X123202491Y-95248000D01*
X123242054Y-95248000D01*
X123375414Y-95447586D01*
X123666564Y-95642127D01*
X124009999Y-95710440D01*
X124607638Y-95710440D01*
X124631671Y-95734473D01*
X124674071Y-95797929D01*
X124737527Y-95840329D01*
X124925462Y-95965904D01*
X124973605Y-95975480D01*
X125147148Y-96010000D01*
X125147152Y-96010000D01*
X125222000Y-96024888D01*
X125296848Y-96010000D01*
X127313427Y-96010000D01*
X127412191Y-96157809D01*
X127622235Y-96298157D01*
X127870000Y-96347440D01*
X128670000Y-96347440D01*
X128917765Y-96298157D01*
X129127809Y-96157809D01*
X129226573Y-96010000D01*
X129973153Y-96010000D01*
X130048000Y-96024888D01*
X130122847Y-96010000D01*
X130122852Y-96010000D01*
X130344537Y-95965904D01*
X130595929Y-95797929D01*
X130638331Y-95734470D01*
X130849801Y-95523000D01*
X131015874Y-95523000D01*
X131396280Y-95365431D01*
X131420385Y-95341326D01*
X131503414Y-95465586D01*
X131794564Y-95660127D01*
X132137999Y-95728440D01*
X133038001Y-95728440D01*
X133381436Y-95660127D01*
X133672586Y-95465586D01*
X133805946Y-95266000D01*
X134654153Y-95266000D01*
X134729000Y-95280888D01*
X134761050Y-95274513D01*
X134979506Y-95365000D01*
X135530494Y-95365000D01*
X136039540Y-95154147D01*
X136429147Y-94764540D01*
X136640000Y-94255494D01*
X136640000Y-93704885D01*
X136954126Y-93835000D01*
X137120199Y-93835000D01*
X137855527Y-94570329D01*
X137855530Y-94570331D01*
X138765670Y-95480472D01*
X138808071Y-95543929D01*
X139059463Y-95711904D01*
X139281148Y-95756000D01*
X139281153Y-95756000D01*
X139356000Y-95770888D01*
X139430847Y-95756000D01*
X140063222Y-95756000D01*
X140069873Y-95789436D01*
X140210001Y-95999151D01*
X140210000Y-96091828D01*
X140173463Y-96099096D01*
X140055765Y-96177739D01*
X139979698Y-96101673D01*
X139746309Y-96005000D01*
X139653750Y-96005000D01*
X139495000Y-96163750D01*
X139495000Y-96642560D01*
X139245000Y-96642560D01*
X139245000Y-96163750D01*
X139086250Y-96005000D01*
X138993691Y-96005000D01*
X138760302Y-96101673D01*
X138581673Y-96280301D01*
X138558660Y-96335859D01*
X138258331Y-96035530D01*
X138215929Y-95972071D01*
X137964537Y-95804096D01*
X137742852Y-95760000D01*
X137742847Y-95760000D01*
X137668000Y-95745112D01*
X137593153Y-95760000D01*
X131646847Y-95760000D01*
X131572000Y-95745112D01*
X131497153Y-95760000D01*
X131497148Y-95760000D01*
X131275463Y-95804096D01*
X131024071Y-95972071D01*
X130981671Y-96035527D01*
X130071530Y-96945669D01*
X130008071Y-96988071D01*
X129840096Y-97239464D01*
X129796000Y-97461149D01*
X129796000Y-97461153D01*
X129781112Y-97536000D01*
X129796000Y-97610847D01*
X129796001Y-100585763D01*
X129745874Y-100565000D01*
X129334126Y-100565000D01*
X129207324Y-100617523D01*
X128817440Y-100227639D01*
X128817440Y-100005000D01*
X128768157Y-99757235D01*
X128726573Y-99695000D01*
X128768157Y-99632765D01*
X128817440Y-99385000D01*
X128817440Y-98735000D01*
X128768157Y-98487235D01*
X128728017Y-98427162D01*
X128805000Y-98241310D01*
X128805000Y-98075750D01*
X128646250Y-97917000D01*
X127447000Y-97917000D01*
X127447000Y-97937000D01*
X127193000Y-97937000D01*
X127193000Y-97917000D01*
X125993750Y-97917000D01*
X125835000Y-98075750D01*
X125835000Y-98241310D01*
X125887523Y-98368111D01*
X125672071Y-98512071D01*
X125629671Y-98575527D01*
X122603199Y-101602000D01*
X121485982Y-101602000D01*
X121353809Y-101404191D01*
X121143765Y-101263843D01*
X120896000Y-101214560D01*
X119896000Y-101214560D01*
X119648235Y-101263843D01*
X119438191Y-101404191D01*
X119297843Y-101614235D01*
X119248560Y-101862000D01*
X119248560Y-102862000D01*
X119297843Y-103109765D01*
X119338869Y-103171164D01*
X119326854Y-103189145D01*
X119238765Y-103632000D01*
X119326854Y-104074855D01*
X119574845Y-104446000D01*
X105358000Y-104446000D01*
X105358000Y-100496340D01*
X105931265Y-100496340D01*
X106249501Y-100950203D01*
X107510434Y-101476936D01*
X108876956Y-101481035D01*
X110141027Y-100961878D01*
X110158499Y-100950203D01*
X110476735Y-100496340D01*
X108204000Y-98223605D01*
X105931265Y-100496340D01*
X105358000Y-100496340D01*
X105358000Y-100040712D01*
X105751660Y-100316735D01*
X108024395Y-98044000D01*
X108383605Y-98044000D01*
X110656340Y-100316735D01*
X111110203Y-99998499D01*
X111228813Y-99714561D01*
X112565000Y-99714561D01*
X112565000Y-100285439D01*
X112783466Y-100812862D01*
X113187138Y-101216534D01*
X113714561Y-101435000D01*
X114285439Y-101435000D01*
X114812862Y-101216534D01*
X115021651Y-101007745D01*
X116671861Y-101007745D01*
X116745995Y-101253864D01*
X117283223Y-101446965D01*
X117853454Y-101419778D01*
X118254005Y-101253864D01*
X118328139Y-101007745D01*
X117500000Y-100179605D01*
X116671861Y-101007745D01*
X115021651Y-101007745D01*
X115216534Y-100812862D01*
X115435000Y-100285439D01*
X115435000Y-99783223D01*
X116053035Y-99783223D01*
X116080222Y-100353454D01*
X116246136Y-100754005D01*
X116492255Y-100828139D01*
X117320395Y-100000000D01*
X117679605Y-100000000D01*
X118507745Y-100828139D01*
X118753864Y-100754005D01*
X118946965Y-100216777D01*
X118919778Y-99646546D01*
X118753864Y-99245995D01*
X118507745Y-99171861D01*
X117679605Y-100000000D01*
X117320395Y-100000000D01*
X116492255Y-99171861D01*
X116246136Y-99245995D01*
X116053035Y-99783223D01*
X115435000Y-99783223D01*
X115435000Y-99714561D01*
X115216534Y-99187138D01*
X115021651Y-98992255D01*
X116671861Y-98992255D01*
X117500000Y-99820395D01*
X118328139Y-98992255D01*
X118254005Y-98746136D01*
X117716777Y-98553035D01*
X117146546Y-98580222D01*
X116745995Y-98746136D01*
X116671861Y-98992255D01*
X115021651Y-98992255D01*
X114812862Y-98783466D01*
X114285439Y-98565000D01*
X113714561Y-98565000D01*
X113187138Y-98783466D01*
X112783466Y-99187138D01*
X112565000Y-99714561D01*
X111228813Y-99714561D01*
X111636936Y-98737566D01*
X111641035Y-97371044D01*
X111121878Y-96106973D01*
X111110203Y-96089501D01*
X110656340Y-95771265D01*
X108383605Y-98044000D01*
X108024395Y-98044000D01*
X105751660Y-95771265D01*
X105358000Y-96047288D01*
X105358000Y-95591660D01*
X105931265Y-95591660D01*
X108204000Y-97864395D01*
X110476735Y-95591660D01*
X110158499Y-95137797D01*
X108897566Y-94611064D01*
X107531044Y-94606965D01*
X106266973Y-95126122D01*
X106249501Y-95137797D01*
X105931265Y-95591660D01*
X105358000Y-95591660D01*
X105358000Y-93000000D01*
X113152560Y-93000000D01*
X113152560Y-94000000D01*
X113201843Y-94247765D01*
X113342191Y-94457809D01*
X113552235Y-94598157D01*
X113800000Y-94647440D01*
X114800000Y-94647440D01*
X115047765Y-94598157D01*
X115109164Y-94557131D01*
X115127145Y-94569146D01*
X115458217Y-94635000D01*
X115681783Y-94635000D01*
X116012855Y-94569146D01*
X116388289Y-94318289D01*
X116639146Y-93942855D01*
X116727235Y-93500000D01*
X116639146Y-93057145D01*
X116388289Y-92681711D01*
X116012855Y-92430854D01*
X115681783Y-92365000D01*
X115458217Y-92365000D01*
X115127145Y-92430854D01*
X115109164Y-92442869D01*
X115047765Y-92401843D01*
X114800000Y-92352560D01*
X113800000Y-92352560D01*
X113552235Y-92401843D01*
X113342191Y-92542191D01*
X113201843Y-92752235D01*
X113152560Y-93000000D01*
X105358000Y-93000000D01*
X105358000Y-91642000D01*
X123164222Y-91642000D01*
X123125000Y-91736691D01*
X123125000Y-91736691D01*
G37*
X123125000Y-91736691D02*
X123125000Y-92152250D01*
X123283750Y-92311000D01*
X124333000Y-92311000D01*
X124333000Y-92291000D01*
X124587000Y-92291000D01*
X124587000Y-92311000D01*
X125636250Y-92311000D01*
X125795000Y-92152250D01*
X125795000Y-91736691D01*
X125755778Y-91642000D01*
X131299678Y-91642000D01*
X131253000Y-91754691D01*
X131253000Y-92170250D01*
X131411750Y-92329000D01*
X132461000Y-92329000D01*
X132461000Y-92309000D01*
X132715000Y-92309000D01*
X132715000Y-92329000D01*
X133764250Y-92329000D01*
X133923000Y-92170250D01*
X133923000Y-91754691D01*
X133876322Y-91642000D01*
X155269078Y-91642000D01*
X155175000Y-91869126D01*
X155175000Y-92280874D01*
X155332569Y-92661280D01*
X155377958Y-92706669D01*
X155125414Y-92875414D01*
X154930873Y-93166564D01*
X154862560Y-93509999D01*
X154862560Y-94160001D01*
X154930873Y-94503436D01*
X155125414Y-94794586D01*
X155223313Y-94860000D01*
X155125414Y-94925414D01*
X154930873Y-95216564D01*
X154862560Y-95559999D01*
X154862560Y-96210001D01*
X154930873Y-96553436D01*
X155029325Y-96700779D01*
X154843857Y-96777603D01*
X154774392Y-97019787D01*
X155575000Y-97820395D01*
X155589143Y-97806253D01*
X155768748Y-97985858D01*
X155754605Y-98000000D01*
X156555213Y-98800608D01*
X156797397Y-98731143D01*
X156984144Y-98207698D01*
X156956362Y-97652632D01*
X156797397Y-97268857D01*
X156555215Y-97199393D01*
X156647168Y-97107440D01*
X156660001Y-97107440D01*
X157003436Y-97039127D01*
X157294586Y-96844586D01*
X157353000Y-96757164D01*
X157353000Y-101160000D01*
X156643163Y-101160000D01*
X156577809Y-101062191D01*
X156367765Y-100921843D01*
X156120000Y-100872560D01*
X155220000Y-100872560D01*
X154972235Y-100921843D01*
X154762191Y-101062191D01*
X154681781Y-101182531D01*
X154596250Y-101097000D01*
X153797000Y-101097000D01*
X153797000Y-101117000D01*
X153543000Y-101117000D01*
X153543000Y-101097000D01*
X152743750Y-101097000D01*
X152585000Y-101255750D01*
X152585000Y-101496310D01*
X152681673Y-101729699D01*
X152860302Y-101908327D01*
X152895694Y-101922987D01*
X152762191Y-102012191D01*
X152621843Y-102222235D01*
X152572560Y-102470000D01*
X152572560Y-102892638D01*
X152360199Y-103105000D01*
X152194126Y-103105000D01*
X151813720Y-103262569D01*
X151522569Y-103553720D01*
X151365000Y-103934126D01*
X151365000Y-104345874D01*
X151406473Y-104446000D01*
X129349803Y-104446000D01*
X131040473Y-102755331D01*
X131103929Y-102712931D01*
X131200926Y-102567765D01*
X131271904Y-102461540D01*
X131283255Y-102404472D01*
X131316000Y-102239854D01*
X131316000Y-102239850D01*
X131330888Y-102165002D01*
X131316000Y-102090154D01*
X131316000Y-101029711D01*
X131493720Y-101207431D01*
X131874126Y-101365000D01*
X132285874Y-101365000D01*
X132666280Y-101207431D01*
X132783711Y-101090000D01*
X133159358Y-101090000D01*
X133122560Y-101275000D01*
X133122560Y-101925000D01*
X133171843Y-102172765D01*
X133312191Y-102382809D01*
X133522235Y-102523157D01*
X133770000Y-102572440D01*
X135470000Y-102572440D01*
X135717765Y-102523157D01*
X135927809Y-102382809D01*
X135943050Y-102360000D01*
X135999222Y-102360000D01*
X136005873Y-102393436D01*
X136200414Y-102684586D01*
X136491564Y-102879127D01*
X136834999Y-102947440D01*
X137432638Y-102947440D01*
X137594681Y-103109483D01*
X137637081Y-103172939D01*
X137888473Y-103340914D01*
X138110158Y-103385010D01*
X138110162Y-103385010D01*
X138185009Y-103399898D01*
X138259856Y-103385010D01*
X140021299Y-103385010D01*
X140129720Y-103493431D01*
X140510126Y-103651000D01*
X140921874Y-103651000D01*
X141302280Y-103493431D01*
X141593431Y-103202280D01*
X141751000Y-102821874D01*
X141751000Y-102410126D01*
X141593431Y-102029720D01*
X141302280Y-101738569D01*
X140921874Y-101581000D01*
X140510126Y-101581000D01*
X140157650Y-101727000D01*
X139337000Y-101727000D01*
X139337000Y-101747000D01*
X139083000Y-101747000D01*
X139083000Y-101727000D01*
X139063000Y-101727000D01*
X139063000Y-101473000D01*
X139083000Y-101473000D01*
X139083000Y-101453000D01*
X139337000Y-101453000D01*
X139337000Y-101473000D01*
X140261250Y-101473000D01*
X140420000Y-101314250D01*
X140420000Y-101090000D01*
X140895148Y-101090000D01*
X140970000Y-101104889D01*
X141044852Y-101090000D01*
X141403153Y-101090000D01*
X141478000Y-101104888D01*
X141500544Y-101100404D01*
X141526126Y-101111000D01*
X141937874Y-101111000D01*
X142318280Y-100953431D01*
X142584821Y-100686890D01*
X145878524Y-100686890D01*
X146048355Y-101096924D01*
X146438642Y-101525183D01*
X146963108Y-101771486D01*
X147193000Y-101650819D01*
X147193000Y-100457000D01*
X145999845Y-100457000D01*
X145878524Y-100686890D01*
X142584821Y-100686890D01*
X142609431Y-100662280D01*
X142767000Y-100281874D01*
X142767000Y-99870126D01*
X142609431Y-99489720D01*
X142318280Y-99198569D01*
X141937874Y-99041000D01*
X141847350Y-99041000D01*
X141867440Y-98940000D01*
X141867440Y-98590000D01*
X141837603Y-98440000D01*
X141867440Y-98290000D01*
X141867440Y-97940000D01*
X141840064Y-97802369D01*
X141855000Y-97766310D01*
X141855000Y-97711250D01*
X141782256Y-97638506D01*
X141677809Y-97482191D01*
X141652081Y-97465000D01*
X141677809Y-97447809D01*
X141782256Y-97291494D01*
X141855000Y-97218750D01*
X141855000Y-97163690D01*
X141840064Y-97127631D01*
X141867440Y-96990000D01*
X141867440Y-96640000D01*
X141818157Y-96392235D01*
X141757801Y-96301907D01*
X141892436Y-96275127D01*
X142183586Y-96080586D01*
X142184377Y-96079403D01*
X142339302Y-96234327D01*
X142572691Y-96331000D01*
X142988250Y-96331000D01*
X143147000Y-96172250D01*
X143147000Y-95123000D01*
X143401000Y-95123000D01*
X143401000Y-96172250D01*
X143559750Y-96331000D01*
X143975309Y-96331000D01*
X144208698Y-96234327D01*
X144387327Y-96055699D01*
X144484000Y-95822310D01*
X144484000Y-95281750D01*
X144452250Y-95250000D01*
X145805908Y-95250000D01*
X145921161Y-95829418D01*
X146249375Y-96320625D01*
X146547761Y-96520000D01*
X146249375Y-96719375D01*
X145921161Y-97210582D01*
X145805908Y-97790000D01*
X145921161Y-98369418D01*
X146249375Y-98860625D01*
X146568478Y-99073843D01*
X146438642Y-99134817D01*
X146048355Y-99563076D01*
X145878524Y-99973110D01*
X145999845Y-100203000D01*
X147193000Y-100203000D01*
X147193000Y-100183000D01*
X147447000Y-100183000D01*
X147447000Y-100203000D01*
X147467000Y-100203000D01*
X147467000Y-100457000D01*
X147447000Y-100457000D01*
X147447000Y-101650819D01*
X147676892Y-101771486D01*
X148201358Y-101525183D01*
X148588647Y-101100214D01*
X148789375Y-101400625D01*
X149280582Y-101728839D01*
X149713744Y-101815000D01*
X150006256Y-101815000D01*
X150439418Y-101728839D01*
X150930625Y-101400625D01*
X151258839Y-100909418D01*
X151351477Y-100443690D01*
X152585000Y-100443690D01*
X152585000Y-100684250D01*
X152743750Y-100843000D01*
X153543000Y-100843000D01*
X153543000Y-100093750D01*
X153797000Y-100093750D01*
X153797000Y-100843000D01*
X154596250Y-100843000D01*
X154755000Y-100684250D01*
X154755000Y-100443690D01*
X154658327Y-100210301D01*
X154479698Y-100031673D01*
X154246309Y-99935000D01*
X153955750Y-99935000D01*
X153797000Y-100093750D01*
X153543000Y-100093750D01*
X153384250Y-99935000D01*
X153093691Y-99935000D01*
X152860302Y-100031673D01*
X152681673Y-100210301D01*
X152585000Y-100443690D01*
X151351477Y-100443690D01*
X151374092Y-100330000D01*
X151258839Y-99750582D01*
X150930625Y-99259375D01*
X150632239Y-99060000D01*
X150751648Y-98980213D01*
X154774392Y-98980213D01*
X154843857Y-99222397D01*
X155367302Y-99409144D01*
X155922368Y-99381362D01*
X156306143Y-99222397D01*
X156375608Y-98980213D01*
X155575000Y-98179605D01*
X154774392Y-98980213D01*
X150751648Y-98980213D01*
X150930625Y-98860625D01*
X151258839Y-98369418D01*
X151373634Y-97792302D01*
X154165856Y-97792302D01*
X154193638Y-98347368D01*
X154352603Y-98731143D01*
X154594787Y-98800608D01*
X155395395Y-98000000D01*
X154594787Y-97199392D01*
X154352603Y-97268857D01*
X154165856Y-97792302D01*
X151373634Y-97792302D01*
X151374092Y-97790000D01*
X151258839Y-97210582D01*
X150930625Y-96719375D01*
X150912381Y-96707184D01*
X150957765Y-96698157D01*
X151167809Y-96557809D01*
X151308157Y-96347765D01*
X151357440Y-96100000D01*
X151357440Y-94400000D01*
X151308157Y-94152235D01*
X151167809Y-93942191D01*
X150957765Y-93801843D01*
X150710000Y-93752560D01*
X149010000Y-93752560D01*
X148762235Y-93801843D01*
X148552191Y-93942191D01*
X148411843Y-94152235D01*
X148402816Y-94197619D01*
X148390625Y-94179375D01*
X147899418Y-93851161D01*
X147466256Y-93765000D01*
X147173744Y-93765000D01*
X146740582Y-93851161D01*
X146249375Y-94179375D01*
X145921161Y-94670582D01*
X145805908Y-95250000D01*
X144452250Y-95250000D01*
X144325250Y-95123000D01*
X143401000Y-95123000D01*
X143147000Y-95123000D01*
X143127000Y-95123000D01*
X143127000Y-94869000D01*
X143147000Y-94869000D01*
X143147000Y-93819750D01*
X143401000Y-93819750D01*
X143401000Y-94869000D01*
X144325250Y-94869000D01*
X144484000Y-94710250D01*
X144484000Y-94169690D01*
X144387327Y-93936301D01*
X144208698Y-93757673D01*
X143975309Y-93661000D01*
X143559750Y-93661000D01*
X143401000Y-93819750D01*
X143147000Y-93819750D01*
X142988250Y-93661000D01*
X142572691Y-93661000D01*
X142339302Y-93757673D01*
X142184377Y-93912597D01*
X142183586Y-93911414D01*
X141892436Y-93716873D01*
X141549001Y-93648560D01*
X140898999Y-93648560D01*
X140555564Y-93716873D01*
X140264414Y-93911414D01*
X140069873Y-94202564D01*
X140063222Y-94236000D01*
X139670802Y-94236000D01*
X138930331Y-93495530D01*
X138930329Y-93495527D01*
X138195000Y-92760199D01*
X138195000Y-92594126D01*
X138037431Y-92213720D01*
X137746280Y-91922569D01*
X137365874Y-91765000D01*
X136954126Y-91765000D01*
X136573720Y-91922569D01*
X136465175Y-92031114D01*
X136434999Y-92025112D01*
X136360152Y-92040000D01*
X136360148Y-92040000D01*
X136138463Y-92084096D01*
X135887071Y-92252071D01*
X135844671Y-92315527D01*
X135555034Y-92605165D01*
X135530494Y-92595000D01*
X134979506Y-92595000D01*
X134470460Y-92805853D01*
X134080853Y-93195460D01*
X133870000Y-93704506D01*
X133870000Y-93746000D01*
X133805946Y-93746000D01*
X133672586Y-93546414D01*
X133671403Y-93545623D01*
X133826327Y-93390698D01*
X133923000Y-93157309D01*
X133923000Y-92741750D01*
X133764250Y-92583000D01*
X132715000Y-92583000D01*
X132715000Y-92603000D01*
X132461000Y-92603000D01*
X132461000Y-92583000D01*
X131701727Y-92583000D01*
X131628537Y-92534096D01*
X131406852Y-92490000D01*
X131406847Y-92490000D01*
X131332000Y-92475112D01*
X131257153Y-92490000D01*
X130176573Y-92490000D01*
X130077809Y-92342191D01*
X129867765Y-92201843D01*
X129620000Y-92152560D01*
X128820000Y-92152560D01*
X128572235Y-92201843D01*
X128362191Y-92342191D01*
X128272987Y-92475694D01*
X128258327Y-92440302D01*
X128079699Y-92261673D01*
X127846310Y-92165000D01*
X127605750Y-92165000D01*
X127447000Y-92323750D01*
X127447000Y-93123000D01*
X127467000Y-93123000D01*
X127467000Y-93377000D01*
X127447000Y-93377000D01*
X127447000Y-94176250D01*
X127532531Y-94261781D01*
X127412191Y-94342191D01*
X127313427Y-94490000D01*
X125807440Y-94490000D01*
X125807440Y-94162999D01*
X125739127Y-93819564D01*
X125549488Y-93535750D01*
X126285000Y-93535750D01*
X126285000Y-93826309D01*
X126381673Y-94059698D01*
X126560301Y-94238327D01*
X126793690Y-94335000D01*
X127034250Y-94335000D01*
X127193000Y-94176250D01*
X127193000Y-93377000D01*
X126443750Y-93377000D01*
X126285000Y-93535750D01*
X125549488Y-93535750D01*
X125544586Y-93528414D01*
X125543403Y-93527623D01*
X125698327Y-93372698D01*
X125795000Y-93139309D01*
X125795000Y-92723750D01*
X125744941Y-92673691D01*
X126285000Y-92673691D01*
X126285000Y-92964250D01*
X126443750Y-93123000D01*
X127193000Y-93123000D01*
X127193000Y-92323750D01*
X127034250Y-92165000D01*
X126793690Y-92165000D01*
X126560301Y-92261673D01*
X126381673Y-92440302D01*
X126285000Y-92673691D01*
X125744941Y-92673691D01*
X125636250Y-92565000D01*
X124587000Y-92565000D01*
X124587000Y-92585000D01*
X124333000Y-92585000D01*
X124333000Y-92565000D01*
X123283750Y-92565000D01*
X123125000Y-92723750D01*
X123125000Y-93139309D01*
X123177312Y-93265601D01*
X123014280Y-93102569D01*
X122633874Y-92945000D01*
X122222126Y-92945000D01*
X121841720Y-93102569D01*
X121550569Y-93393720D01*
X121393000Y-93774126D01*
X121393000Y-94185874D01*
X121550569Y-94566280D01*
X121560473Y-94576184D01*
X121372071Y-94702071D01*
X121329671Y-94765527D01*
X120419528Y-95675671D01*
X120356072Y-95718071D01*
X120313672Y-95781527D01*
X120313671Y-95781528D01*
X120244533Y-95885000D01*
X120188097Y-95969463D01*
X120160745Y-96106973D01*
X120129112Y-96266000D01*
X120144001Y-96340852D01*
X120144001Y-96859688D01*
X120119460Y-96869853D01*
X119729853Y-97259460D01*
X119519000Y-97768506D01*
X119519000Y-98319494D01*
X119729853Y-98828540D01*
X120119460Y-99218147D01*
X120628506Y-99429000D01*
X121179494Y-99429000D01*
X121688540Y-99218147D01*
X122078147Y-98828540D01*
X122289000Y-98319494D01*
X122289000Y-97768506D01*
X122269786Y-97722119D01*
X122428000Y-97722119D01*
X122428000Y-98277881D01*
X122640680Y-98791337D01*
X123033663Y-99184320D01*
X123547119Y-99397000D01*
X124102881Y-99397000D01*
X124616337Y-99184320D01*
X125009320Y-98791337D01*
X125222000Y-98277881D01*
X125222000Y-97722119D01*
X125063179Y-97338690D01*
X125835000Y-97338690D01*
X125835000Y-97504250D01*
X125993750Y-97663000D01*
X127193000Y-97663000D01*
X127193000Y-96988750D01*
X127447000Y-96988750D01*
X127447000Y-97663000D01*
X128646250Y-97663000D01*
X128805000Y-97504250D01*
X128805000Y-97338690D01*
X128708327Y-97105301D01*
X128529698Y-96926673D01*
X128296309Y-96830000D01*
X127605750Y-96830000D01*
X127447000Y-96988750D01*
X127193000Y-96988750D01*
X127034250Y-96830000D01*
X126343691Y-96830000D01*
X126110302Y-96926673D01*
X125931673Y-97105301D01*
X125835000Y-97338690D01*
X125063179Y-97338690D01*
X125009320Y-97208663D01*
X124616337Y-96815680D01*
X124102881Y-96603000D01*
X123547119Y-96603000D01*
X123033663Y-96815680D01*
X122640680Y-97208663D01*
X122428000Y-97722119D01*
X122269786Y-97722119D01*
X122078147Y-97259460D01*
X121688540Y-96869853D01*
X121664000Y-96859688D01*
X121664000Y-96580801D01*
X122234802Y-96010000D01*
X122353148Y-96010000D01*
X122428000Y-96024889D01*
X122502852Y-96010000D01*
X122724537Y-95965904D01*
X122975929Y-95797929D01*
X123143904Y-95546537D01*
X123202889Y-95250000D01*
X123202491Y-95248000D01*
X123242054Y-95248000D01*
X123375414Y-95447586D01*
X123666564Y-95642127D01*
X124009999Y-95710440D01*
X124607638Y-95710440D01*
X124631671Y-95734473D01*
X124674071Y-95797929D01*
X124737527Y-95840329D01*
X124925462Y-95965904D01*
X124973605Y-95975480D01*
X125147148Y-96010000D01*
X125147152Y-96010000D01*
X125222000Y-96024888D01*
X125296848Y-96010000D01*
X127313427Y-96010000D01*
X127412191Y-96157809D01*
X127622235Y-96298157D01*
X127870000Y-96347440D01*
X128670000Y-96347440D01*
X128917765Y-96298157D01*
X129127809Y-96157809D01*
X129226573Y-96010000D01*
X129973153Y-96010000D01*
X130048000Y-96024888D01*
X130122847Y-96010000D01*
X130122852Y-96010000D01*
X130344537Y-95965904D01*
X130595929Y-95797929D01*
X130638331Y-95734470D01*
X130849801Y-95523000D01*
X131015874Y-95523000D01*
X131396280Y-95365431D01*
X131420385Y-95341326D01*
X131503414Y-95465586D01*
X131794564Y-95660127D01*
X132137999Y-95728440D01*
X133038001Y-95728440D01*
X133381436Y-95660127D01*
X133672586Y-95465586D01*
X133805946Y-95266000D01*
X134654153Y-95266000D01*
X134729000Y-95280888D01*
X134761050Y-95274513D01*
X134979506Y-95365000D01*
X135530494Y-95365000D01*
X136039540Y-95154147D01*
X136429147Y-94764540D01*
X136640000Y-94255494D01*
X136640000Y-93704885D01*
X136954126Y-93835000D01*
X137120199Y-93835000D01*
X137855527Y-94570329D01*
X137855530Y-94570331D01*
X138765670Y-95480472D01*
X138808071Y-95543929D01*
X139059463Y-95711904D01*
X139281148Y-95756000D01*
X139281153Y-95756000D01*
X139356000Y-95770888D01*
X139430847Y-95756000D01*
X140063222Y-95756000D01*
X140069873Y-95789436D01*
X140210001Y-95999151D01*
X140210000Y-96091828D01*
X140173463Y-96099096D01*
X140055765Y-96177739D01*
X139979698Y-96101673D01*
X139746309Y-96005000D01*
X139653750Y-96005000D01*
X139495000Y-96163750D01*
X139495000Y-96642560D01*
X139245000Y-96642560D01*
X139245000Y-96163750D01*
X139086250Y-96005000D01*
X138993691Y-96005000D01*
X138760302Y-96101673D01*
X138581673Y-96280301D01*
X138558660Y-96335859D01*
X138258331Y-96035530D01*
X138215929Y-95972071D01*
X137964537Y-95804096D01*
X137742852Y-95760000D01*
X137742847Y-95760000D01*
X137668000Y-95745112D01*
X137593153Y-95760000D01*
X131646847Y-95760000D01*
X131572000Y-95745112D01*
X131497153Y-95760000D01*
X131497148Y-95760000D01*
X131275463Y-95804096D01*
X131024071Y-95972071D01*
X130981671Y-96035527D01*
X130071530Y-96945669D01*
X130008071Y-96988071D01*
X129840096Y-97239464D01*
X129796000Y-97461149D01*
X129796000Y-97461153D01*
X129781112Y-97536000D01*
X129796000Y-97610847D01*
X129796001Y-100585763D01*
X129745874Y-100565000D01*
X129334126Y-100565000D01*
X129207324Y-100617523D01*
X128817440Y-100227639D01*
X128817440Y-100005000D01*
X128768157Y-99757235D01*
X128726573Y-99695000D01*
X128768157Y-99632765D01*
X128817440Y-99385000D01*
X128817440Y-98735000D01*
X128768157Y-98487235D01*
X128728017Y-98427162D01*
X128805000Y-98241310D01*
X128805000Y-98075750D01*
X128646250Y-97917000D01*
X127447000Y-97917000D01*
X127447000Y-97937000D01*
X127193000Y-97937000D01*
X127193000Y-97917000D01*
X125993750Y-97917000D01*
X125835000Y-98075750D01*
X125835000Y-98241310D01*
X125887523Y-98368111D01*
X125672071Y-98512071D01*
X125629671Y-98575527D01*
X122603199Y-101602000D01*
X121485982Y-101602000D01*
X121353809Y-101404191D01*
X121143765Y-101263843D01*
X120896000Y-101214560D01*
X119896000Y-101214560D01*
X119648235Y-101263843D01*
X119438191Y-101404191D01*
X119297843Y-101614235D01*
X119248560Y-101862000D01*
X119248560Y-102862000D01*
X119297843Y-103109765D01*
X119338869Y-103171164D01*
X119326854Y-103189145D01*
X119238765Y-103632000D01*
X119326854Y-104074855D01*
X119574845Y-104446000D01*
X105358000Y-104446000D01*
X105358000Y-100496340D01*
X105931265Y-100496340D01*
X106249501Y-100950203D01*
X107510434Y-101476936D01*
X108876956Y-101481035D01*
X110141027Y-100961878D01*
X110158499Y-100950203D01*
X110476735Y-100496340D01*
X108204000Y-98223605D01*
X105931265Y-100496340D01*
X105358000Y-100496340D01*
X105358000Y-100040712D01*
X105751660Y-100316735D01*
X108024395Y-98044000D01*
X108383605Y-98044000D01*
X110656340Y-100316735D01*
X111110203Y-99998499D01*
X111228813Y-99714561D01*
X112565000Y-99714561D01*
X112565000Y-100285439D01*
X112783466Y-100812862D01*
X113187138Y-101216534D01*
X113714561Y-101435000D01*
X114285439Y-101435000D01*
X114812862Y-101216534D01*
X115021651Y-101007745D01*
X116671861Y-101007745D01*
X116745995Y-101253864D01*
X117283223Y-101446965D01*
X117853454Y-101419778D01*
X118254005Y-101253864D01*
X118328139Y-101007745D01*
X117500000Y-100179605D01*
X116671861Y-101007745D01*
X115021651Y-101007745D01*
X115216534Y-100812862D01*
X115435000Y-100285439D01*
X115435000Y-99783223D01*
X116053035Y-99783223D01*
X116080222Y-100353454D01*
X116246136Y-100754005D01*
X116492255Y-100828139D01*
X117320395Y-100000000D01*
X117679605Y-100000000D01*
X118507745Y-100828139D01*
X118753864Y-100754005D01*
X118946965Y-100216777D01*
X118919778Y-99646546D01*
X118753864Y-99245995D01*
X118507745Y-99171861D01*
X117679605Y-100000000D01*
X117320395Y-100000000D01*
X116492255Y-99171861D01*
X116246136Y-99245995D01*
X116053035Y-99783223D01*
X115435000Y-99783223D01*
X115435000Y-99714561D01*
X115216534Y-99187138D01*
X115021651Y-98992255D01*
X116671861Y-98992255D01*
X117500000Y-99820395D01*
X118328139Y-98992255D01*
X118254005Y-98746136D01*
X117716777Y-98553035D01*
X117146546Y-98580222D01*
X116745995Y-98746136D01*
X116671861Y-98992255D01*
X115021651Y-98992255D01*
X114812862Y-98783466D01*
X114285439Y-98565000D01*
X113714561Y-98565000D01*
X113187138Y-98783466D01*
X112783466Y-99187138D01*
X112565000Y-99714561D01*
X111228813Y-99714561D01*
X111636936Y-98737566D01*
X111641035Y-97371044D01*
X111121878Y-96106973D01*
X111110203Y-96089501D01*
X110656340Y-95771265D01*
X108383605Y-98044000D01*
X108024395Y-98044000D01*
X105751660Y-95771265D01*
X105358000Y-96047288D01*
X105358000Y-95591660D01*
X105931265Y-95591660D01*
X108204000Y-97864395D01*
X110476735Y-95591660D01*
X110158499Y-95137797D01*
X108897566Y-94611064D01*
X107531044Y-94606965D01*
X106266973Y-95126122D01*
X106249501Y-95137797D01*
X105931265Y-95591660D01*
X105358000Y-95591660D01*
X105358000Y-93000000D01*
X113152560Y-93000000D01*
X113152560Y-94000000D01*
X113201843Y-94247765D01*
X113342191Y-94457809D01*
X113552235Y-94598157D01*
X113800000Y-94647440D01*
X114800000Y-94647440D01*
X115047765Y-94598157D01*
X115109164Y-94557131D01*
X115127145Y-94569146D01*
X115458217Y-94635000D01*
X115681783Y-94635000D01*
X116012855Y-94569146D01*
X116388289Y-94318289D01*
X116639146Y-93942855D01*
X116727235Y-93500000D01*
X116639146Y-93057145D01*
X116388289Y-92681711D01*
X116012855Y-92430854D01*
X115681783Y-92365000D01*
X115458217Y-92365000D01*
X115127145Y-92430854D01*
X115109164Y-92442869D01*
X115047765Y-92401843D01*
X114800000Y-92352560D01*
X113800000Y-92352560D01*
X113552235Y-92401843D01*
X113342191Y-92542191D01*
X113201843Y-92752235D01*
X113152560Y-93000000D01*
X105358000Y-93000000D01*
X105358000Y-91642000D01*
X123164222Y-91642000D01*
X123125000Y-91736691D01*
G04 #@! TD*
M02*
